<?xml version="1.0" encoding="utf-8"?>
<!-- Generator: Adobe Illustrator 24.0.1, SVG Export Plug-In . SVG Version: 6.00 Build 0)  -->
<svg version="1.1" id="Layer_1" xmlns="http://www.w3.org/2000/svg" xmlns:xlink="http://www.w3.org/1999/xlink" x="0px" y="0px"
	 viewBox="0 0 75 75" style="enable-background:new 0 0 75 75;" xml:space="preserve">
<style type="text/css">
	.st0{fill:#173768;}
	.st1{fill:#FFFFFF;}
</style>
<g>
	<circle class="st0" cx="37.4" cy="37.9" r="23.6"/>
</g>
<g>
	<path class="st1" d="M37.4,62.9c-13.8,0-25-11.2-25-25s11.2-25,25-25s25,11.2,25,25S51.2,62.9,37.4,62.9z M37.4,14.9
		c-12.7,0-23,10.3-23,23s10.3,23,23,23s23-10.3,23-23S50.1,14.9,37.4,14.9z"/>
</g>
<path class="st1" d="M39.2,38.3l7.3-7.3c0.4-0.4,0.4-1,0-1.4s-1-0.4-1.4,0l-7.2,7.3l-7.2-7.3c-0.4-0.4-1-0.4-1.4,0s-0.4,1,0,1.4
	l7.3,7.3l-7.3,7.3c-0.4,0.4-0.4,1,0,1.4c0.2,0.2,0.5,0.3,0.7,0.3c0.3,0,0.5-0.1,0.7-0.3l7.2-7.3l7.2,7.3c0.2,0.2,0.5,0.3,0.7,0.3
	c0.3,0,0.5-0.1,0.7-0.3c0.4-0.4,0.4-1,0-1.4L39.2,38.3z"/>
</svg>
