<?xml version="1.0" encoding="utf-8"?>
<!-- Generator: Adobe Illustrator 24.0.1, SVG Export Plug-In . SVG Version: 6.00 Build 0)  -->
<svg version="1.1" id="Layer_1" xmlns="http://www.w3.org/2000/svg" xmlns:xlink="http://www.w3.org/1999/xlink" x="0px" y="0px"
	 viewBox="0 0 1890 1234" style="enable-background:new 0 0 1890 1234;" xml:space="preserve">
<style type="text/css">
	.st0{opacity:0.15;fill:#919090;enable-background:new    ;}
	.st1{opacity:0.08;fill:#919090;enable-background:new    ;}
	.st2{opacity:0.1;fill:#919090;enable-background:new    ;}
</style>
<g id="circuit-1">
	<path id="Path_131" class="st0" d="M1890,627.33h-145.62v-43.51c-0.02-7.96-6.48-14.4-14.44-14.39h-77.64
		c-7.96-0.02-14.43,6.42-14.44,14.38c0,0,0,0,0,0v77.34c0.01,7.96,6.48,14.4,14.44,14.39l0,0h27.55V780.1
		c-0.02,7.28-5.94,13.18-13.22,13.17h-122.88c-12.14-0.01-22,9.81-22.04,21.95v140.49h-90.37c-19.43-0.04-35.22,15.68-35.26,35.12
		c0,0,0,0,0,0v74.64h-144.3c-7.29,0.01-13.2-5.89-13.22-13.17V903.5h93.52c19.44,0.04,35.22-15.69,35.26-35.12V679.57
		c-0.04-19.43-15.82-35.16-35.25-35.12c0,0,0,0,0,0h-189.55c-19.43-0.04-35.22,15.68-35.26,35.12c0,0,0,0,0,0v113.71h-64.12
		c-7.29,0.01-13.2-5.89-13.22-13.17v-85.6c-0.04-12.14-9.9-21.96-22.04-21.95h-80.8v-59.33c-0.02-9.95-8.1-18-18.05-17.98
		c0,0,0,0,0,0h-97.05c-9.95-0.02-18.03,8.03-18.05,17.98v96.67c0.02,9.95,8.1,18,18.05,17.98c0,0,0,0,0,0h30.39v94.82
		c-0.02,7.29-5.94,13.18-13.23,13.17H682.88c-12.14-0.01-22,9.81-22.04,21.95V990.5h-56.25c-12.44-0.03-22.54,10.04-22.57,22.48
		c0,0,0,0,0,0v83.25H310.3c-7.29,0.01-13.2-5.89-13.22-13.17v-74.21h99.89c19.43,0.04,35.22-15.68,35.26-35.12c0,0,0,0,0-0.01
		V784.92c-0.04-19.43-15.82-35.16-35.26-35.12c0,0,0,0-0.01,0H207.41c-19.44-0.04-35.22,15.69-35.26,35.12c0,0,0,0,0,0v93.54H0v8.78
		h172.15v86.49c0.04,19.44,15.82,35.16,35.26,35.12c0,0,0,0,0,0h80.85v74.21c0.04,12.14,9.9,21.96,22.04,21.95h271.73v28.81
		c0.02,12.44,10.13,22.5,22.57,22.48H725.9c12.44,0.02,22.54-10.04,22.56-22.48v-120.84c-0.02-12.44-10.12-22.5-22.56-22.48h-56.25
		V857.82c0.02-7.29,5.94-13.18,13.22-13.17h146.26c12.14,0.01,22-9.81,22.04-21.95v-94.82h57.85c9.95,0.02,18.03-8.03,18.05-17.98
		v-28.57h80.8c7.29-0.01,13.2,5.89,13.22,13.17v85.6c0.04,12.14,9.9,21.96,22.04,21.95h64.12v66.33
		c0.04,19.44,15.82,35.16,35.26,35.12h0h87.22v148.81c0.04,12.14,9.9,21.96,22.04,21.95h144.31v105.39
		c0.04,19.43,15.82,35.16,35.26,35.12c0,0,0,0,0,0h189.55c19.43,0.04,35.22-15.68,35.26-35.12c0,0,0,0,0,0V990.85
		c-0.04-19.43-15.82-35.16-35.26-35.12c0,0,0,0,0,0h-90.37v-140.5c0.02-7.29,5.94-13.18,13.22-13.17h122.88
		c12.14,0.01,22-9.81,22.04-21.95V675.55h41.28c7.96,0.01,14.43-6.43,14.44-14.39v-25.05H1890L1890,627.33z"/>
	<path id="Path_132" class="st1" d="M1890,133.75h-184.39V95.04c-0.04-18.87-15.36-34.14-34.24-34.11h-93.14
		c-18.87-0.04-34.2,15.23-34.24,34.11c0,0,0,0,0,0v38.71H1429.6c-11.79-0.01-21.36,9.53-21.4,21.32v49.83
		c-0.02,7.08-5.76,12.8-12.84,12.8h-94.18v-62.27c-0.04-18.87-15.37-34.14-34.24-34.11H1133.4c-18.87-0.04-34.2,15.24-34.24,34.11
		c0,0,0,0,0,0v133.05c0.04,18.87,15.36,34.15,34.24,34.11c0,0,0,0,0,0h53.11v55.92c-0.02,7.07-5.76,12.8-12.84,12.79h-275.2V307.1
		c-0.04-18.87-15.36-34.15-34.24-34.11c0,0,0,0,0,0h-80.45V162.07c-0.04-11.79-9.61-21.33-21.4-21.32H607.91V53.33
		c-0.04-18.87-15.37-34.14-34.24-34.11H389.61c-18.87-0.03-34.2,15.24-34.24,34.11v87.41H0v8.53h355.37v87.42
		c0.04,18.87,15.36,34.15,34.24,34.11c0,0,0,0,0,0h184.06c18.87,0.04,34.2-15.24,34.24-34.11c0,0,0,0,0,0v-87.41h154.47
		c7.08-0.01,12.82,5.72,12.84,12.8V273h-95.05c-18.87-0.04-34.2,15.23-34.24,34.11v183.37c0.04,18.87,15.36,34.15,34.24,34.11h0
		h184.06c18.87,0.04,34.2-15.23,34.24-34.11c0,0,0,0,0,0v-90.65h275.2c11.79,0.01,21.36-9.53,21.4-21.32v-55.92h71.87
		c18.87,0.03,34.2-15.24,34.24-34.11v-62.26h94.18c11.79,0.01,21.36-9.53,21.4-21.32v-49.83c0.02-7.07,5.77-12.79,12.84-12.79
		h114.38v45.56c0.04,18.87,15.37,34.15,34.24,34.11h93.14c18.87,0.03,34.2-15.24,34.24-34.11v-45.56H1890L1890,133.75z"/>
	<path id="Path_133" class="st2" d="M1890,556.87h-435.86v-85.39c-0.04-18.44-15.01-33.36-33.45-33.32c0,0,0,0-0.01,0h-179.86
		c-18.44-0.04-33.42,14.88-33.46,33.32c0,0,0,0,0,0v85.39h-150.95c-6.91,0.01-12.52-5.58-12.55-12.49V436.02h92.88
		c18.44,0.04,33.42-14.88,33.46-33.32c0,0,0,0,0,0V223.6c-0.04-18.44-15.02-33.36-33.45-33.32c0,0,0,0,0,0H956.89
		c-18.44-0.04-33.42,14.88-33.46,33.32c0,0,0,0,0,0v88.55H654.5c-11.52-0.01-20.88,9.3-20.91,20.82v54.62h-70.23
		c-18.44-0.04-33.42,14.88-33.46,33.32c0,0,0,0,0,0v60.82h-92.03c-11.52-0.01-20.88,9.3-20.91,20.82v48.67
		c-0.02,6.91-5.64,12.5-12.55,12.49H292.63v-44.5c-0.04-18.44-15.02-33.36-33.45-33.32c0,0,0,0,0,0h-91.02
		c-18.44-0.04-33.42,14.88-33.46,33.32c0,0,0,0,0,0v90.64c0.04,18.44,15.02,33.36,33.45,33.32c0,0,0,0,0,0h91.02
		c18.44,0.04,33.42-14.88,33.46-33.31c0,0,0,0,0,0v-37.81h111.77c11.52,0.01,20.88-9.3,20.91-20.82v-48.67
		c0.02-6.91,5.64-12.5,12.55-12.49h92.03v60.81c0.04,18.44,15.02,33.36,33.46,33.32h130.5c18.44,0.04,33.42-14.87,33.47-33.31
		c0,0,0-0.01,0-0.01V420.91c-0.04-18.44-15.01-33.36-33.45-33.32c0,0-0.01,0-0.01,0h-51.9v-54.62c0.02-6.91,5.63-12.5,12.55-12.49
		h268.92v82.23c0.04,18.44,15.02,33.36,33.46,33.32h78.61v108.36c0.04,11.52,9.39,20.84,20.91,20.82h150.95v85.38
		c0.04,18.44,15.02,33.36,33.46,33.32c0,0,0,0,0,0h179.86c18.44,0.04,33.42-14.88,33.46-33.31c0,0,0,0,0-0.01V565.2H1890V556.87z"/>
</g>
</svg>
