<?xml version="1.0" encoding="utf-8"?>
<!-- Generator: Adobe Illustrator 24.0.1, SVG Export Plug-In . SVG Version: 6.00 Build 0)  -->
<svg version="1.1" id="Layer_1" xmlns="http://www.w3.org/2000/svg" xmlns:xlink="http://www.w3.org/1999/xlink" x="0px" y="0px"
	 viewBox="0 0 1890 1060" style="enable-background:new 0 0 1890 1060;" xml:space="preserve">
<style type="text/css">
	.st0{opacity:0.17;}
	.st1{fill:#FFFFFF;}
	.st2{fill:#919090;}
	.st3{opacity:0.15;}
	.st4{opacity:0.5;}
	.st5{opacity:0.11;}
	.st6{opacity:0.11;fill:#030504;enable-background:new    ;}
	.st7{opacity:0.14;fill:#030504;enable-background:new    ;}
	.st8{opacity:0.15;fill:#030504;enable-background:new    ;}
	.st9{opacity:0.16;fill:#030504;enable-background:new    ;}
	.st10{opacity:8.000000e-02;fill:#030504;enable-background:new    ;}
	.st11{opacity:0.16;}
	.st12{opacity:0.77;fill:#919090;enable-background:new    ;}
	.st13{opacity:2.500000e-02;fill:#030504;enable-background:new    ;}
	.st14{opacity:0.34;}
	.st15{opacity:0.22;fill:#919090;enable-background:new    ;}
	.st16{opacity:0.27;fill:#919090;enable-background:new    ;}
</style>
<g id="vertical_lines">
	<g id="Group_155" transform="translate(301.413 102.2)" class="st0">
		<g id="Group_140" transform="translate(56.519 33.318)">
			<rect id="Rectangle_910" x="-72.5" y="-74.9" class="st1" width="3.2" height="28.8"/>
			<rect id="Rectangle_911" x="-67.6" y="-74.9" class="st1" width="3.2" height="28.8"/>
			<rect id="Rectangle_912" x="-62.6" y="-74.9" class="st1" width="3.2" height="28.8"/>
			<rect id="Rectangle_913" x="-57.7" y="-74.9" class="st1" width="3.2" height="28.8"/>
			<rect id="Rectangle_914" x="-52.8" y="-74.9" class="st1" width="3.2" height="28.8"/>
			<rect id="Rectangle_915" x="-47.9" y="-74.9" class="st1" width="3.2" height="28.8"/>
			<rect id="Rectangle_916" x="-43" y="-74.9" class="st1" width="3.2" height="28.8"/>
			<rect id="Rectangle_917" x="-38.1" y="-74.9" class="st1" width="3.2" height="28.8"/>
			<rect id="Rectangle_918" x="-33.2" y="-74.9" class="st1" width="3.2" height="28.8"/>
			<rect id="Rectangle_919" x="-28.3" y="-74.9" class="st1" width="3.2" height="28.8"/>
			<rect id="Rectangle_920" x="-23.4" y="-74.9" class="st1" width="3.2" height="28.8"/>
			<rect id="Rectangle_921" x="-18.5" y="-74.9" class="st1" width="3.2" height="28.8"/>
			<rect id="Rectangle_922" x="-13.5" y="-74.9" class="st1" width="3.2" height="28.8"/>
			<rect id="Rectangle_923" x="-8.6" y="-74.9" class="st1" width="3.2" height="28.8"/>
			<rect id="Rectangle_924" x="-3.7" y="-74.9" class="st1" width="3.2" height="28.8"/>
		</g>
		<g id="Group_141" transform="translate(159.383 226.988)">
			<rect id="Rectangle_925" x="-72.5" y="-74.9" class="st1" width="3.2" height="28.8"/>
			<rect id="Rectangle_926" x="-67.6" y="-74.9" class="st1" width="3.2" height="28.8"/>
			<rect id="Rectangle_927" x="-62.6" y="-74.9" class="st1" width="3.2" height="28.8"/>
			<rect id="Rectangle_928" x="-57.7" y="-74.9" class="st1" width="3.2" height="28.8"/>
			<rect id="Rectangle_929" x="-52.8" y="-74.9" class="st1" width="3.2" height="28.8"/>
			<rect id="Rectangle_930" x="-47.9" y="-74.9" class="st1" width="3.2" height="28.8"/>
			<rect id="Rectangle_931" x="-43" y="-74.9" class="st1" width="3.2" height="28.8"/>
			<rect id="Rectangle_932" x="-38.1" y="-74.9" class="st1" width="3.2" height="28.8"/>
			<rect id="Rectangle_933" x="-33.2" y="-74.9" class="st1" width="3.2" height="28.8"/>
			<rect id="Rectangle_934" x="-28.3" y="-74.9" class="st1" width="3.2" height="28.8"/>
			<rect id="Rectangle_935" x="-23.4" y="-74.9" class="st1" width="3.2" height="28.8"/>
			<rect id="Rectangle_936" x="-18.5" y="-74.9" class="st1" width="3.2" height="28.8"/>
			<rect id="Rectangle_937" x="-13.5" y="-74.9" class="st1" width="3.2" height="28.8"/>
			<rect id="Rectangle_938" x="-8.6" y="-74.9" class="st1" width="3.2" height="28.8"/>
			<rect id="Rectangle_939" x="-3.7" y="-74.9" class="st1" width="3.2" height="28.8"/>
		</g>
		<g id="Group_142" transform="translate(0 328.215)">
			<rect id="Rectangle_940" x="-72.5" y="-74.9" class="st2" width="3.2" height="28.8"/>
			<rect id="Rectangle_941" x="-67.6" y="-74.9" class="st2" width="3.2" height="28.8"/>
			<rect id="Rectangle_942" x="-62.6" y="-74.9" class="st2" width="3.2" height="28.8"/>
			<rect id="Rectangle_943" x="-57.7" y="-74.9" class="st2" width="3.2" height="28.8"/>
			<rect id="Rectangle_944" x="-52.8" y="-74.9" class="st2" width="3.2" height="28.8"/>
			<rect id="Rectangle_945" x="-47.9" y="-74.9" class="st2" width="3.2" height="28.8"/>
			<rect id="Rectangle_946" x="-43" y="-74.9" class="st2" width="3.2" height="28.8"/>
			<rect id="Rectangle_947" x="-38.1" y="-74.9" class="st2" width="3.2" height="28.8"/>
			<rect id="Rectangle_948" x="-33.2" y="-74.9" class="st2" width="3.2" height="28.8"/>
			<rect id="Rectangle_949" x="-28.3" y="-74.9" class="st2" width="3.2" height="28.8"/>
			<rect id="Rectangle_950" x="-23.4" y="-74.9" class="st2" width="3.2" height="28.8"/>
			<rect id="Rectangle_951" x="-18.5" y="-74.9" class="st2" width="3.2" height="28.8"/>
			<rect id="Rectangle_952" x="-13.5" y="-74.9" class="st2" width="3.2" height="28.8"/>
			<rect id="Rectangle_953" x="-8.6" y="-74.9" class="st2" width="3.2" height="28.8"/>
			<rect id="Rectangle_954" x="-3.7" y="-74.9" class="st2" width="3.2" height="28.8"/>
		</g>
		<g id="Group_143" transform="translate(614.553 205.658)">
			<rect id="Rectangle_955" x="-72.5" y="-74.9" class="st1" width="3.2" height="28.8"/>
			<rect id="Rectangle_956" x="-67.6" y="-74.9" class="st1" width="3.2" height="28.8"/>
			<rect id="Rectangle_957" x="-62.6" y="-74.9" class="st1" width="3.2" height="28.8"/>
			<rect id="Rectangle_958" x="-57.7" y="-74.9" class="st1" width="3.2" height="28.8"/>
			<rect id="Rectangle_959" x="-52.8" y="-74.9" class="st1" width="3.2" height="28.8"/>
			<rect id="Rectangle_960" x="-47.9" y="-74.9" class="st1" width="3.2" height="28.8"/>
			<rect id="Rectangle_961" x="-43" y="-74.9" class="st1" width="3.2" height="28.8"/>
			<rect id="Rectangle_962" x="-38.1" y="-74.9" class="st1" width="3.2" height="28.8"/>
			<rect id="Rectangle_963" x="-33.2" y="-74.9" class="st1" width="3.2" height="28.8"/>
			<rect id="Rectangle_964" x="-28.3" y="-74.9" class="st1" width="3.2" height="28.8"/>
			<rect id="Rectangle_965" x="-23.4" y="-74.9" class="st1" width="3.2" height="28.8"/>
			<rect id="Rectangle_966" x="-18.5" y="-74.9" class="st1" width="3.2" height="28.8"/>
			<rect id="Rectangle_967" x="-13.5" y="-74.9" class="st1" width="3.2" height="28.8"/>
			<rect id="Rectangle_968" x="-8.6" y="-74.9" class="st1" width="3.2" height="28.8"/>
			<rect id="Rectangle_969" x="-3.7" y="-74.9" class="st1" width="3.2" height="28.8"/>
		</g>
		<g id="Group_144" transform="translate(1069.276 169.562)">
			<rect id="Rectangle_970" x="-72.5" y="-74.9" class="st2" width="3.2" height="28.8"/>
			<rect id="Rectangle_971" x="-67.5" y="-74.9" class="st2" width="3.2" height="28.8"/>
			<rect id="Rectangle_972" x="-62.6" y="-74.9" class="st2" width="3.2" height="28.8"/>
			<rect id="Rectangle_973" x="-57.7" y="-74.9" class="st2" width="3.2" height="28.8"/>
			<rect id="Rectangle_974" x="-52.8" y="-74.9" class="st2" width="3.2" height="28.8"/>
			<rect id="Rectangle_975" x="-47.9" y="-74.9" class="st2" width="3.2" height="28.8"/>
			<rect id="Rectangle_976" x="-43" y="-74.9" class="st2" width="3.2" height="28.8"/>
			<rect id="Rectangle_977" x="-38.1" y="-74.9" class="st2" width="3.2" height="28.8"/>
			<rect id="Rectangle_978" x="-33.2" y="-74.9" class="st2" width="3.2" height="28.8"/>
			<rect id="Rectangle_979" x="-28.3" y="-74.9" class="st2" width="3.2" height="28.8"/>
			<rect id="Rectangle_980" x="-23.4" y="-74.9" class="st2" width="3.2" height="28.8"/>
			<rect id="Rectangle_981" x="-18.5" y="-74.9" class="st2" width="3.2" height="28.8"/>
			<rect id="Rectangle_982" x="-13.5" y="-74.9" class="st2" width="3.2" height="28.8"/>
			<rect id="Rectangle_983" x="-8.6" y="-74.9" class="st2" width="3.2" height="28.8"/>
			<rect id="Rectangle_984" x="-3.7" y="-74.9" class="st2" width="3.2" height="28.8"/>
		</g>
		<g id="Group_145" transform="translate(820.495)">
			<rect id="Rectangle_985" x="-72.5" y="-74.9" class="st1" width="3.2" height="28.8"/>
			<rect id="Rectangle_986" x="-67.6" y="-74.9" class="st1" width="3.2" height="28.8"/>
			<rect id="Rectangle_987" x="-62.6" y="-74.9" class="st1" width="3.2" height="28.8"/>
			<rect id="Rectangle_988" x="-57.7" y="-74.9" class="st1" width="3.2" height="28.8"/>
			<rect id="Rectangle_989" x="-52.8" y="-74.9" class="st1" width="3.2" height="28.8"/>
			<rect id="Rectangle_990" x="-47.9" y="-74.9" class="st1" width="3.2" height="28.8"/>
			<rect id="Rectangle_991" x="-43" y="-74.9" class="st1" width="3.2" height="28.8"/>
			<rect id="Rectangle_992" x="-38.1" y="-74.9" class="st1" width="3.2" height="28.8"/>
			<rect id="Rectangle_993" x="-33.2" y="-74.9" class="st1" width="3.2" height="28.8"/>
			<rect id="Rectangle_994" x="-28.3" y="-74.9" class="st1" width="3.2" height="28.8"/>
			<rect id="Rectangle_995" x="-23.4" y="-74.9" class="st1" width="3.2" height="28.8"/>
			<rect id="Rectangle_996" x="-18.5" y="-74.9" class="st1" width="3.2" height="28.8"/>
			<rect id="Rectangle_997" x="-13.5" y="-74.9" class="st1" width="3.2" height="28.8"/>
			<rect id="Rectangle_998" x="-8.6" y="-74.9" class="st1" width="3.2" height="28.8"/>
			<rect id="Rectangle_999" x="-3.7" y="-74.9" class="st1" width="3.2" height="28.8"/>
		</g>
		<g id="Group_146" transform="translate(446.591 459.384)">
			<rect id="Rectangle_1000" x="-72.5" y="-74.9" class="st1" width="3.2" height="28.8"/>
			<rect id="Rectangle_1001" x="-67.6" y="-74.9" class="st1" width="3.2" height="28.8"/>
			<rect id="Rectangle_1002" x="-62.6" y="-74.9" class="st1" width="3.2" height="28.8"/>
			<rect id="Rectangle_1003" x="-57.7" y="-74.9" class="st1" width="3.2" height="28.8"/>
			<rect id="Rectangle_1004" x="-52.8" y="-74.9" class="st1" width="3.2" height="28.8"/>
			<rect id="Rectangle_1005" x="-47.9" y="-74.9" class="st1" width="3.2" height="28.8"/>
			<rect id="Rectangle_1006" x="-43" y="-74.9" class="st1" width="3.2" height="28.8"/>
			<rect id="Rectangle_1007" x="-38.1" y="-74.9" class="st1" width="3.2" height="28.8"/>
			<rect id="Rectangle_1008" x="-33.2" y="-74.9" class="st1" width="3.2" height="28.8"/>
			<rect id="Rectangle_1009" x="-28.3" y="-74.9" class="st1" width="3.2" height="28.8"/>
			<rect id="Rectangle_1010" x="-23.4" y="-74.9" class="st1" width="3.2" height="28.8"/>
			<rect id="Rectangle_1011" x="-18.5" y="-74.9" class="st1" width="3.2" height="28.8"/>
			<rect id="Rectangle_1012" x="-13.5" y="-74.9" class="st1" width="3.2" height="28.8"/>
			<rect id="Rectangle_1013" x="-8.6" y="-74.9" class="st1" width="3.2" height="28.8"/>
			<rect id="Rectangle_1014" x="-3.7" y="-74.9" class="st1" width="3.2" height="28.8"/>
		</g>
		<g id="Group_147" transform="translate(857.341 364.891)">
			<rect id="Rectangle_1015" x="-72.5" y="-74.9" class="st1" width="3.2" height="28.8"/>
			<rect id="Rectangle_1016" x="-67.6" y="-74.9" class="st1" width="3.2" height="28.8"/>
			<rect id="Rectangle_1017" x="-62.6" y="-74.9" class="st1" width="3.2" height="28.8"/>
			<rect id="Rectangle_1018" x="-57.7" y="-74.9" class="st1" width="3.2" height="28.8"/>
			<rect id="Rectangle_1019" x="-52.8" y="-74.9" class="st1" width="3.2" height="28.8"/>
			<rect id="Rectangle_1020" x="-47.9" y="-74.9" class="st1" width="3.2" height="28.8"/>
			<rect id="Rectangle_1021" x="-43" y="-74.9" class="st1" width="3.2" height="28.8"/>
			<rect id="Rectangle_1022" x="-38.1" y="-74.9" class="st1" width="3.2" height="28.8"/>
			<rect id="Rectangle_1023" x="-33.2" y="-74.9" class="st1" width="3.2" height="28.8"/>
			<rect id="Rectangle_1024" x="-28.3" y="-74.9" class="st1" width="3.2" height="28.8"/>
			<rect id="Rectangle_1025" x="-23.4" y="-74.9" class="st1" width="3.2" height="28.8"/>
			<rect id="Rectangle_1026" x="-18.5" y="-74.9" class="st1" width="3.2" height="28.8"/>
			<rect id="Rectangle_1027" x="-13.5" y="-74.9" class="st1" width="3.2" height="28.8"/>
			<rect id="Rectangle_1028" x="-8.6" y="-74.9" class="st1" width="3.2" height="28.8"/>
			<rect id="Rectangle_1029" x="-3.7" y="-74.9" class="st1" width="3.2" height="28.8"/>
		</g>
		<g id="Group_148" transform="translate(894.635 430.23)">
			<rect id="Rectangle_1030" x="-72.5" y="-74.9" class="st1" width="3.2" height="28.8"/>
			<rect id="Rectangle_1031" x="-67.5" y="-74.9" class="st1" width="3.2" height="28.8"/>
			<rect id="Rectangle_1032" x="-62.6" y="-74.9" class="st1" width="3.2" height="28.8"/>
			<rect id="Rectangle_1033" x="-57.7" y="-74.9" class="st1" width="3.2" height="28.8"/>
			<rect id="Rectangle_1034" x="-52.8" y="-74.9" class="st1" width="3.2" height="28.8"/>
			<rect id="Rectangle_1035" x="-47.9" y="-74.9" class="st1" width="3.2" height="28.8"/>
			<rect id="Rectangle_1036" x="-43" y="-74.9" class="st1" width="3.2" height="28.8"/>
			<rect id="Rectangle_1037" x="-38.1" y="-74.9" class="st1" width="3.2" height="28.8"/>
			<rect id="Rectangle_1038" x="-33.2" y="-74.9" class="st1" width="3.2" height="28.8"/>
			<rect id="Rectangle_1039" x="-28.3" y="-74.9" class="st1" width="3.2" height="28.8"/>
			<rect id="Rectangle_1040" x="-23.4" y="-74.9" class="st1" width="3.2" height="28.8"/>
			<rect id="Rectangle_1041" x="-18.5" y="-74.9" class="st1" width="3.2" height="28.8"/>
			<rect id="Rectangle_1042" x="-13.5" y="-74.9" class="st1" width="3.2" height="28.8"/>
			<rect id="Rectangle_1043" x="-8.6" y="-74.9" class="st1" width="3.2" height="28.8"/>
			<rect id="Rectangle_1044" x="-3.7" y="-74.9" class="st1" width="3.2" height="28.8"/>
		</g>
		<g id="Group_149" transform="translate(967.427 430.23)">
			<rect id="Rectangle_1045" x="-72.5" y="-74.9" class="st1" width="3.2" height="28.8"/>
			<rect id="Rectangle_1046" x="-67.6" y="-74.9" class="st1" width="3.2" height="28.8"/>
			<rect id="Rectangle_1047" x="-62.6" y="-74.9" class="st1" width="3.2" height="28.8"/>
			<rect id="Rectangle_1048" x="-57.7" y="-74.9" class="st1" width="3.2" height="28.8"/>
			<rect id="Rectangle_1049" x="-52.8" y="-74.9" class="st1" width="3.2" height="28.8"/>
			<rect id="Rectangle_1050" x="-47.9" y="-74.9" class="st1" width="3.2" height="28.8"/>
			<rect id="Rectangle_1051" x="-43" y="-74.9" class="st1" width="3.2" height="28.8"/>
			<rect id="Rectangle_1052" x="-38.1" y="-74.9" class="st1" width="3.2" height="28.8"/>
			<rect id="Rectangle_1053" x="-33.2" y="-74.9" class="st1" width="3.2" height="28.8"/>
			<rect id="Rectangle_1054" x="-28.3" y="-74.9" class="st1" width="3.2" height="28.8"/>
			<rect id="Rectangle_1055" x="-23.4" y="-74.9" class="st1" width="3.2" height="28.8"/>
			<rect id="Rectangle_1056" x="-18.5" y="-74.9" class="st1" width="3.2" height="28.8"/>
			<rect id="Rectangle_1057" x="-13.5" y="-74.9" class="st1" width="3.2" height="28.8"/>
			<rect id="Rectangle_1058" x="-8.6" y="-74.9" class="st1" width="3.2" height="28.8"/>
			<rect id="Rectangle_1059" x="-3.7" y="-74.9" class="st1" width="3.2" height="28.8"/>
		</g>
		<g id="Group_150" transform="translate(1228.891 363.036)">
			<rect id="Rectangle_1060" x="-72.5" y="-74.9" class="st2" width="3.2" height="28.8"/>
			<rect id="Rectangle_1061" x="-67.6" y="-74.9" class="st2" width="3.2" height="28.8"/>
			<rect id="Rectangle_1062" x="-62.6" y="-74.9" class="st2" width="3.2" height="28.8"/>
			<rect id="Rectangle_1063" x="-57.7" y="-74.9" class="st2" width="3.2" height="28.8"/>
			<rect id="Rectangle_1064" x="-52.8" y="-74.9" class="st2" width="3.2" height="28.8"/>
			<rect id="Rectangle_1065" x="-47.9" y="-74.9" class="st2" width="3.2" height="28.8"/>
			<rect id="Rectangle_1066" x="-43" y="-74.9" class="st2" width="3.2" height="28.8"/>
			<rect id="Rectangle_1067" x="-38.1" y="-74.9" class="st2" width="3.2" height="28.8"/>
			<rect id="Rectangle_1068" x="-33.2" y="-74.9" class="st2" width="3.2" height="28.8"/>
			<rect id="Rectangle_1069" x="-28.3" y="-74.9" class="st2" width="3.2" height="28.8"/>
			<rect id="Rectangle_1070" x="-23.4" y="-74.9" class="st2" width="3.2" height="28.8"/>
			<rect id="Rectangle_1071" x="-18.5" y="-74.9" class="st2" width="3.2" height="28.8"/>
			<rect id="Rectangle_1072" x="-13.5" y="-74.9" class="st2" width="3.2" height="28.8"/>
			<rect id="Rectangle_1073" x="-8.6" y="-74.9" class="st2" width="3.2" height="28.8"/>
			<rect id="Rectangle_1074" x="-3.7" y="-74.9" class="st2" width="3.2" height="28.8"/>
		</g>
		<g id="Group_151" transform="translate(1196.008 337.545)">
			<rect id="Rectangle_1075" x="-72.5" y="-74.9" class="st1" width="3.2" height="28.8"/>
			<rect id="Rectangle_1076" x="-67.6" y="-74.9" class="st1" width="3.2" height="28.8"/>
			<rect id="Rectangle_1077" x="-62.6" y="-74.9" class="st1" width="3.2" height="28.8"/>
			<rect id="Rectangle_1078" x="-57.7" y="-74.9" class="st1" width="3.2" height="28.8"/>
			<rect id="Rectangle_1079" x="-52.8" y="-74.9" class="st1" width="3.2" height="28.8"/>
			<rect id="Rectangle_1080" x="-47.9" y="-74.9" class="st1" width="3.2" height="28.8"/>
			<rect id="Rectangle_1081" x="-43" y="-74.9" class="st1" width="3.2" height="28.8"/>
			<rect id="Rectangle_1082" x="-38.1" y="-74.9" class="st1" width="3.2" height="28.8"/>
			<rect id="Rectangle_1083" x="-33.2" y="-74.9" class="st1" width="3.2" height="28.8"/>
			<rect id="Rectangle_1084" x="-28.3" y="-74.9" class="st1" width="3.2" height="28.8"/>
			<rect id="Rectangle_1085" x="-23.4" y="-74.9" class="st1" width="3.2" height="28.8"/>
			<rect id="Rectangle_1086" x="-18.5" y="-74.9" class="st1" width="3.2" height="28.8"/>
			<rect id="Rectangle_1087" x="-13.5" y="-74.9" class="st1" width="3.2" height="28.8"/>
			<rect id="Rectangle_1088" x="-8.6" y="-74.9" class="st1" width="3.2" height="28.8"/>
			<rect id="Rectangle_1089" x="-3.7" y="-74.9" class="st1" width="3.2" height="28.8"/>
		</g>
		<g id="Group_152" transform="translate(957.402 55.71)">
			<rect id="Rectangle_1090" x="-72.5" y="-74.9" class="st1" width="3.2" height="21.1"/>
			<rect id="Rectangle_1091" x="-67.6" y="-74.9" class="st1" width="3.2" height="21.1"/>
			<rect id="Rectangle_1092" x="-62.6" y="-74.9" class="st1" width="3.2" height="21.1"/>
			<rect id="Rectangle_1093" x="-57.7" y="-74.9" class="st1" width="3.2" height="21.1"/>
			<rect id="Rectangle_1094" x="-52.8" y="-74.9" class="st1" width="3.2" height="21.1"/>
			<rect id="Rectangle_1095" x="-47.9" y="-74.9" class="st1" width="3.2" height="21.1"/>
			<rect id="Rectangle_1096" x="-43" y="-74.9" class="st1" width="3.2" height="21.1"/>
			<rect id="Rectangle_1097" x="-38.1" y="-74.9" class="st1" width="3.2" height="21.1"/>
			<rect id="Rectangle_1098" x="-33.2" y="-74.9" class="st1" width="3.2" height="21.1"/>
			<rect id="Rectangle_1099" x="-28.3" y="-74.9" class="st1" width="3.2" height="21.1"/>
			<rect id="Rectangle_1100" x="-23.4" y="-74.9" class="st1" width="3.2" height="21.1"/>
			<rect id="Rectangle_1101" x="-18.5" y="-74.9" class="st1" width="3.2" height="21.1"/>
			<rect id="Rectangle_1102" x="-13.5" y="-74.9" class="st1" width="3.2" height="21.1"/>
			<rect id="Rectangle_1103" x="-8.6" y="-74.9" class="st1" width="3.2" height="21.1"/>
			<rect id="Rectangle_1104" x="-3.7" y="-74.9" class="st1" width="3.2" height="21.1"/>
		</g>
		<g id="Group_153" transform="translate(1375.972 13.044)">
			<rect id="Rectangle_1105" x="-72.5" y="-74.9" class="st1" width="3.2" height="21.1"/>
			<rect id="Rectangle_1106" x="-67.6" y="-74.9" class="st1" width="3.2" height="21.1"/>
			<rect id="Rectangle_1107" x="-62.6" y="-74.9" class="st1" width="3.2" height="21.1"/>
			<rect id="Rectangle_1108" x="-57.7" y="-74.9" class="st1" width="3.2" height="21.1"/>
			<rect id="Rectangle_1109" x="-52.8" y="-74.9" class="st1" width="3.2" height="21.1"/>
			<rect id="Rectangle_1110" x="-47.9" y="-74.9" class="st1" width="3.2" height="21.1"/>
			<rect id="Rectangle_1111" x="-43" y="-74.9" class="st1" width="3.2" height="21.1"/>
			<rect id="Rectangle_1112" x="-38.1" y="-74.9" class="st1" width="3.2" height="21.1"/>
			<rect id="Rectangle_1113" x="-33.2" y="-74.9" class="st1" width="3.2" height="21.1"/>
			<rect id="Rectangle_1114" x="-28.3" y="-74.9" class="st1" width="3.2" height="21.1"/>
			<rect id="Rectangle_1115" x="-23.4" y="-74.9" class="st1" width="3.2" height="21.1"/>
			<rect id="Rectangle_1116" x="-18.5" y="-74.9" class="st1" width="3.2" height="21.1"/>
			<rect id="Rectangle_1117" x="-13.5" y="-74.9" class="st1" width="3.2" height="21.1"/>
			<rect id="Rectangle_1118" x="-8.6" y="-74.9" class="st1" width="3.2" height="21.1"/>
			<rect id="Rectangle_1119" x="-3.7" y="-74.9" class="st1" width="3.2" height="21.1"/>
		</g>
		<g id="Group_154" transform="translate(1292.234 13.044)">
			<rect id="Rectangle_1120" x="-72.5" y="-74.9" class="st1" width="3.2" height="21.1"/>
			<rect id="Rectangle_1121" x="-67.6" y="-74.9" class="st1" width="3.2" height="21.1"/>
			<rect id="Rectangle_1122" x="-62.6" y="-74.9" class="st1" width="3.2" height="21.1"/>
			<rect id="Rectangle_1123" x="-57.7" y="-74.9" class="st1" width="3.2" height="21.1"/>
			<rect id="Rectangle_1124" x="-52.8" y="-74.9" class="st1" width="3.2" height="21.1"/>
			<rect id="Rectangle_1125" x="-47.9" y="-74.9" class="st1" width="3.2" height="21.1"/>
			<rect id="Rectangle_1126" x="-43" y="-74.9" class="st1" width="3.2" height="21.1"/>
			<rect id="Rectangle_1127" x="-38.1" y="-74.9" class="st1" width="3.2" height="21.1"/>
			<rect id="Rectangle_1128" x="-33.2" y="-74.9" class="st1" width="3.2" height="21.1"/>
			<rect id="Rectangle_1129" x="-28.3" y="-74.9" class="st1" width="3.2" height="21.1"/>
			<rect id="Rectangle_1130" x="-23.4" y="-74.9" class="st1" width="3.2" height="21.1"/>
			<rect id="Rectangle_1131" x="-18.5" y="-74.9" class="st1" width="3.2" height="21.1"/>
			<rect id="Rectangle_1132" x="-13.5" y="-74.9" class="st1" width="3.2" height="21.1"/>
			<rect id="Rectangle_1133" x="-8.6" y="-74.9" class="st1" width="3.2" height="21.1"/>
			<rect id="Rectangle_1134" x="-3.7" y="-74.9" class="st1" width="3.2" height="21.1"/>
		</g>
	</g>
	<g id="Group_159" transform="translate(837.331 800.657)" class="st3">
		<rect id="Rectangle_1180" x="-3.7" y="-74.9" class="st2" width="3.2" height="28.8"/>
		<rect id="Rectangle_1181" x="-8.6" y="-74.9" class="st2" width="3.2" height="28.8"/>
		<rect id="Rectangle_1182" x="-13.5" y="-74.9" class="st2" width="3.2" height="28.8"/>
		<rect id="Rectangle_1183" x="-18.5" y="-74.9" class="st2" width="3.2" height="28.8"/>
		<rect id="Rectangle_1184" x="-23.4" y="-74.9" class="st2" width="3.2" height="28.8"/>
		<rect id="Rectangle_1185" x="-28.3" y="-74.9" class="st2" width="3.2" height="28.8"/>
		<rect id="Rectangle_1186" x="-33.2" y="-74.9" class="st2" width="3.2" height="28.8"/>
		<rect id="Rectangle_1187" x="-38.1" y="-74.9" class="st2" width="3.2" height="28.8"/>
		<rect id="Rectangle_1188" x="-43" y="-74.9" class="st2" width="3.2" height="28.8"/>
		<rect id="Rectangle_1189" x="-47.9" y="-74.9" class="st2" width="3.2" height="28.8"/>
		<rect id="Rectangle_1190" x="-52.8" y="-74.9" class="st2" width="3.2" height="28.8"/>
		<rect id="Rectangle_1191" x="-57.7" y="-74.9" class="st2" width="3.2" height="28.8"/>
		<rect id="Rectangle_1192" x="-62.6" y="-74.9" class="st2" width="3.2" height="28.8"/>
		<rect id="Rectangle_1193" x="-67.6" y="-74.9" class="st2" width="3.2" height="28.8"/>
		<rect id="Rectangle_1194" x="-72.5" y="-74.9" class="st2" width="3.2" height="28.8"/>
	</g>
	<g>
		<g id="Group_156" transform="translate(1717.966 831.035)" class="st4">
			<rect id="Rectangle_1135" x="-3.7" y="-74.9" class="st1" width="3.2" height="28.8"/>
			<rect id="Rectangle_1136" x="-8.6" y="-74.9" class="st1" width="3.2" height="28.8"/>
			<rect id="Rectangle_1137" x="-13.5" y="-74.9" class="st1" width="3.2" height="28.8"/>
			<rect id="Rectangle_1138" x="-18.5" y="-74.9" class="st1" width="3.2" height="28.8"/>
			<rect id="Rectangle_1139" x="-23.4" y="-74.9" class="st1" width="3.2" height="28.8"/>
			<rect id="Rectangle_1140" x="-28.3" y="-74.9" class="st1" width="3.2" height="28.8"/>
			<rect id="Rectangle_1141" x="-33.2" y="-74.9" class="st1" width="3.2" height="28.8"/>
			<rect id="Rectangle_1142" x="-38.1" y="-74.9" class="st1" width="3.2" height="28.8"/>
			<rect id="Rectangle_1143" x="-43" y="-74.9" class="st1" width="3.2" height="28.8"/>
			<rect id="Rectangle_1144" x="-47.9" y="-74.9" class="st1" width="3.2" height="28.8"/>
			<rect id="Rectangle_1145" x="-52.8" y="-74.9" class="st1" width="3.2" height="28.8"/>
			<rect id="Rectangle_1146" x="-57.7" y="-74.9" class="st1" width="3.2" height="28.8"/>
			<rect id="Rectangle_1147" x="-62.6" y="-74.9" class="st1" width="3.2" height="28.8"/>
			<rect id="Rectangle_1148" x="-67.5" y="-74.9" class="st1" width="3.2" height="28.8"/>
			<rect id="Rectangle_1149" x="-72.5" y="-74.9" class="st1" width="3.2" height="28.8"/>
		</g>
		<g id="Group_157" transform="translate(1355.914 947.21)" class="st4">
			<rect id="Rectangle_1150" x="-3.7" y="-74.9" class="st1" width="3.2" height="28.8"/>
			<rect id="Rectangle_1151" x="-8.6" y="-74.9" class="st1" width="3.2" height="28.8"/>
			<rect id="Rectangle_1152" x="-13.5" y="-74.9" class="st1" width="3.2" height="28.8"/>
			<rect id="Rectangle_1153" x="-18.5" y="-74.9" class="st1" width="3.2" height="28.8"/>
			<rect id="Rectangle_1154" x="-23.4" y="-74.9" class="st1" width="3.2" height="28.8"/>
			<rect id="Rectangle_1155" x="-28.3" y="-74.9" class="st1" width="3.2" height="28.8"/>
			<rect id="Rectangle_1156" x="-33.2" y="-74.9" class="st1" width="3.2" height="28.8"/>
			<rect id="Rectangle_1157" x="-38.1" y="-74.9" class="st1" width="3.2" height="28.8"/>
			<rect id="Rectangle_1158" x="-43" y="-74.9" class="st1" width="3.2" height="28.8"/>
			<rect id="Rectangle_1159" x="-47.9" y="-74.9" class="st1" width="3.2" height="28.8"/>
			<rect id="Rectangle_1160" x="-52.8" y="-74.9" class="st1" width="3.2" height="28.8"/>
			<rect id="Rectangle_1161" x="-57.7" y="-74.9" class="st1" width="3.2" height="28.8"/>
			<rect id="Rectangle_1162" x="-62.6" y="-74.9" class="st1" width="3.2" height="28.8"/>
			<rect id="Rectangle_1163" x="-67.6" y="-74.9" class="st1" width="3.2" height="28.8"/>
			<rect id="Rectangle_1164" x="-72.5" y="-74.9" class="st1" width="3.2" height="28.8"/>
		</g>
		<g id="Group_162" transform="translate(1150.593 637.035)" class="st4">
			<rect id="Rectangle_1225" x="-3.7" y="-74.9" class="st1" width="3.2" height="28.8"/>
			<rect id="Rectangle_1226" x="-8.6" y="-74.9" class="st1" width="3.2" height="28.8"/>
			<rect id="Rectangle_1227" x="-13.5" y="-74.9" class="st1" width="3.2" height="28.8"/>
			<rect id="Rectangle_1228" x="-18.5" y="-74.9" class="st1" width="3.2" height="28.8"/>
			<rect id="Rectangle_1229" x="-23.4" y="-74.9" class="st1" width="3.2" height="28.8"/>
			<rect id="Rectangle_1230" x="-28.3" y="-74.9" class="st1" width="3.2" height="28.8"/>
			<rect id="Rectangle_1231" x="-33.2" y="-74.9" class="st1" width="3.2" height="28.8"/>
			<rect id="Rectangle_1232" x="-38.1" y="-74.9" class="st1" width="3.2" height="28.8"/>
			<rect id="Rectangle_1233" x="-43" y="-74.9" class="st1" width="3.2" height="28.8"/>
			<rect id="Rectangle_1234" x="-47.9" y="-74.9" class="st1" width="3.2" height="28.8"/>
			<rect id="Rectangle_1235" x="-52.8" y="-74.9" class="st1" width="3.2" height="28.8"/>
			<rect id="Rectangle_1236" x="-57.7" y="-74.9" class="st1" width="3.2" height="28.8"/>
			<rect id="Rectangle_1237" x="-62.6" y="-74.9" class="st1" width="3.2" height="28.8"/>
			<rect id="Rectangle_1238" x="-67.6" y="-74.9" class="st1" width="3.2" height="28.8"/>
			<rect id="Rectangle_1239" x="-72.5" y="-74.9" class="st1" width="3.2" height="28.8"/>
		</g>
		<g id="Group_164" transform="translate(412.706 774.629)" class="st4">
			<rect id="Rectangle_1255" x="-31.2" y="-74.9" class="st1" width="1.9" height="17.3"/>
			<rect id="Rectangle_1256" x="-34.2" y="-74.9" class="st1" width="2" height="17.3"/>
			<rect id="Rectangle_1257" x="-37.1" y="-74.9" class="st1" width="2" height="17.3"/>
			<rect id="Rectangle_1258" x="-40.1" y="-74.9" class="st1" width="2" height="17.3"/>
			<rect id="Rectangle_1259" x="-43" y="-74.9" class="st1" width="2" height="17.3"/>
			<rect id="Rectangle_1260" x="-45.9" y="-74.9" class="st1" width="1.9" height="17.3"/>
			<rect id="Rectangle_1261" x="-48.9" y="-74.9" class="st1" width="2" height="17.3"/>
			<rect id="Rectangle_1262" x="-51.8" y="-74.9" class="st1" width="2" height="17.3"/>
			<rect id="Rectangle_1263" x="-54.8" y="-74.9" class="st1" width="2" height="17.3"/>
			<rect id="Rectangle_1264" x="-57.7" y="-74.9" class="st1" width="2" height="17.3"/>
			<rect id="Rectangle_1265" x="-60.7" y="-74.9" class="st1" width="1.9" height="17.3"/>
			<rect id="Rectangle_1266" x="-63.6" y="-74.9" class="st1" width="2" height="17.3"/>
			<rect id="Rectangle_1267" x="-66.6" y="-74.9" class="st1" width="2" height="17.3"/>
			<rect id="Rectangle_1268" x="-69.5" y="-74.9" class="st1" width="2" height="17.3"/>
			<rect id="Rectangle_1269" x="-72.5" y="-74.9" class="st1" width="2" height="17.3"/>
		</g>
		<g id="Group_165" transform="translate(637.806 1048.44)" class="st4">
			<rect id="Rectangle_1270" x="-3.7" y="-74.9" class="st1" width="3.2" height="21.1"/>
			<rect id="Rectangle_1271" x="-8.6" y="-74.9" class="st1" width="3.2" height="21.1"/>
			<rect id="Rectangle_1272" x="-13.5" y="-74.9" class="st1" width="3.2" height="21.1"/>
			<rect id="Rectangle_1273" x="-18.5" y="-74.9" class="st1" width="3.2" height="21.1"/>
			<rect id="Rectangle_1274" x="-23.4" y="-74.9" class="st1" width="3.2" height="21.1"/>
			<rect id="Rectangle_1275" x="-28.3" y="-74.9" class="st1" width="3.2" height="21.1"/>
			<rect id="Rectangle_1276" x="-33.2" y="-74.9" class="st1" width="3.2" height="21.1"/>
			<rect id="Rectangle_1277" x="-38.1" y="-74.9" class="st1" width="3.2" height="21.1"/>
			<rect id="Rectangle_1278" x="-43" y="-74.9" class="st1" width="3.2" height="21.1"/>
			<rect id="Rectangle_1279" x="-47.9" y="-74.9" class="st1" width="3.2" height="21.1"/>
			<rect id="Rectangle_1280" x="-52.8" y="-74.9" class="st1" width="3.2" height="21.1"/>
			<rect id="Rectangle_1281" x="-57.7" y="-74.9" class="st1" width="3.2" height="21.1"/>
			<rect id="Rectangle_1282" x="-62.6" y="-74.9" class="st1" width="3.2" height="21.1"/>
			<rect id="Rectangle_1283" x="-67.6" y="-74.9" class="st1" width="3.2" height="21.1"/>
			<rect id="Rectangle_1284" x="-72.5" y="-74.9" class="st1" width="3.2" height="21.1"/>
		</g>
		<g id="Group_166" transform="translate(247.924 1095.32)" class="st4">
			<rect id="Rectangle_1285" x="-91.2" y="-74.9" class="st1" width="2" height="12.6"/>
			<rect id="Rectangle_1286" x="-94.2" y="-74.9" class="st1" width="2" height="12.6"/>
			<rect id="Rectangle_1287" x="-97.1" y="-74.9" class="st1" width="2" height="12.6"/>
			<rect id="Rectangle_1288" x="-100.1" y="-74.9" class="st1" width="2" height="12.6"/>
			<rect id="Rectangle_1289" x="-103" y="-74.9" class="st1" width="2" height="12.6"/>
			<rect id="Rectangle_1290" x="-105.9" y="-74.9" class="st1" width="2" height="12.6"/>
			<rect id="Rectangle_1291" x="-108.9" y="-74.9" class="st1" width="2" height="12.6"/>
			<rect id="Rectangle_1292" x="-111.8" y="-74.9" class="st1" width="2" height="12.6"/>
			<rect id="Rectangle_1293" x="-114.8" y="-74.9" class="st1" width="2" height="12.6"/>
			<rect id="Rectangle_1294" x="-117.7" y="-74.9" class="st1" width="2" height="12.6"/>
			<rect id="Rectangle_1295" x="-120.7" y="-74.9" class="st1" width="2" height="12.6"/>
			<rect id="Rectangle_1296" x="-123.6" y="-74.9" class="st1" width="2" height="12.6"/>
			<rect id="Rectangle_1297" x="-126.6" y="-74.9" class="st1" width="2" height="12.6"/>
			<rect id="Rectangle_1298" x="-129.5" y="-74.9" class="st1" width="2" height="12.6"/>
			<rect id="Rectangle_1299" x="-132.5" y="-74.9" class="st1" width="2" height="12.6"/>
		</g>
		<g id="Group_167" transform="translate(298.166 1095.32)" class="st4">
			<rect id="Rectangle_1300" x="-91.2" y="-74.9" class="st1" width="2" height="12.6"/>
			<rect id="Rectangle_1301" x="-94.2" y="-74.9" class="st1" width="2" height="12.6"/>
			<rect id="Rectangle_1302" x="-97.1" y="-74.9" class="st1" width="1.9" height="12.6"/>
			<rect id="Rectangle_1303" x="-100.1" y="-74.9" class="st1" width="2" height="12.6"/>
			<rect id="Rectangle_1304" x="-103" y="-74.9" class="st1" width="1.9" height="12.6"/>
			<rect id="Rectangle_1305" x="-105.9" y="-74.9" class="st1" width="2" height="12.6"/>
			<rect id="Rectangle_1306" x="-108.9" y="-74.9" class="st1" width="2" height="12.6"/>
			<rect id="Rectangle_1307" x="-111.8" y="-74.9" class="st1" width="1.9" height="12.6"/>
			<rect id="Rectangle_1308" x="-114.8" y="-74.9" class="st1" width="2" height="12.6"/>
			<rect id="Rectangle_1309" x="-117.7" y="-74.9" class="st1" width="1.9" height="12.6"/>
			<rect id="Rectangle_1310" x="-120.7" y="-74.9" class="st1" width="2" height="12.6"/>
			<rect id="Rectangle_1311" x="-123.6" y="-74.9" class="st1" width="2" height="12.6"/>
			<rect id="Rectangle_1312" x="-126.6" y="-74.9" class="st1" width="2" height="12.6"/>
			<rect id="Rectangle_1313" x="-129.5" y="-74.9" class="st1" width="2" height="12.6"/>
			<rect id="Rectangle_1314" x="-132.5" y="-74.9" class="st1" width="2" height="12.6"/>
		</g>
	</g>
</g>
<g id="rectangles" transform="translate(1108.315 638.86)" class="st5">
	<g id="Group_168">
		<path id="Rectangle_1315" class="st6" d="M376.3-201.7h114.9c11,0,20,8.9,20,20v114.9c0,11-8.9,20-20,20H376.3c-11,0-20-8.9-20-20
			v-114.9C356.3-192.7,365.3-201.7,376.3-201.7z"/>
		<path id="Rectangle_1316" class="st7" d="M307.3-268.5h73.6c7.1,0,12.8,5.7,12.8,12.8l0,0v73.6c0,7.1-5.7,12.8-12.8,12.8h-73.6
			c-7.1,0-12.8-5.7-12.8-12.8l0,0v-73.6C294.5-262.8,300.3-268.5,307.3-268.5z"/>
		<path id="Rectangle_1317" class="st8" d="M-20-401.1h92c8.8,0,16,7.2,16,16v92c0,8.8-7.2,16-16,16h-92c-8.8,0-16-7.2-16-16v-92
			C-36-393.9-28.8-401.1-20-401.1z"/>
		<path id="Rectangle_1318" class="st6" d="M410.4-401.1h92c8.8,0,16,7.2,16,16v92c0,8.8-7.2,16-16,16h-91.9c-8.8,0-16-7.2-16-16
			v-92C394.4-393.9,401.6-401.1,410.4-401.1z"/>
		<path id="Rectangle_1319" class="st9" d="M203-44.7h92c8.8,0,16,7.2,16,16v92c0,8.8-7.2,16-16,16h-92c-8.8,0-16-7.2-16-16v-92
			C187-37.6,194.2-44.7,203-44.7z"/>
		<path id="Rectangle_1320" class="st6" d="M511.7-75.7h92c8.8,0,16,7.2,16,16v92c0,8.8-7.2,16-16,16h-91.9c-8.8,0-16-7.2-16-16v-92
			C495.8-68.6,502.9-75.7,511.7-75.7z"/>
		<path id="Rectangle_1321" class="st6" d="M595.4-308.1h115c11,0,20,8.9,20,20v115c0,11-8.9,20-20,20h-115c-11,0-20-8.9-20-20V-288
			C575.4-299.2,584.3-308.1,595.4-308.1L595.4-308.1z"/>
	</g>
	<g id="Group_170">
		<path id="Rectangle_1322" class="st10" d="M-1041.2-48h73.6c7.1,0,12.8,5.7,12.8,12.8l0,0v73.6c0,7.1-5.7,12.8-12.8,12.8h-73.6
			c-7.1,0-12.8-5.7-12.8-12.8l0,0v-73.6C-1054-42.3-1048.3-48-1041.2-48L-1041.2-48z"/>
		<path id="Rectangle_1323" class="st10" d="M-941.8-132.9h115c11,0,20,8.9,20,20V2c0,11-8.9,20-20,20h-115c-11,0-20-8.9-20-20v-115
			C-961.8-124-952.9-133-941.8-132.9z"/>
		<path id="Rectangle_1324" class="st10" d="M-800.9-60.4h92c8.8,0,16,7.2,16,16v92c0,8.8-7.2,16-16,16h-92c-8.8,0-16-7.2-16-16v-92
			C-816.9-53.3-809.7-60.4-800.9-60.4L-800.9-60.4z"/>
		<path id="Rectangle_1325" class="st10" d="M-732.3,59.7h92c8.8,0,16,7.2,16,16v92c0,8.8-7.2,16-16,16h-92c-8.8,0-16-7.2-16-16v-92
			C-748.3,66.9-741.1,59.7-732.3,59.7L-732.3,59.7z"/>
		<path id="Rectangle_1326" class="st10" d="M-955.3-296.6h92c8.8,0,16,7.2,16,16v92c0,8.8-7.2,16-16,16h-92c-8.8,0-16-7.2-16-16
			v-92C-971.3-289.5-964.1-296.6-955.3-296.6L-955.3-296.6L-955.3-296.6z"/>
		<path id="Rectangle_1327" class="st8" d="M-564.5-102h114.9c11,0,20,8.9,20,20V33c0,11-8.9,20-20,20h-114.9c-11,0-20-8.9-20-20
			V-82C-584.5-93-575.5-102-564.5-102L-564.5-102z"/>
	</g>
</g>
<g id="dots" transform="translate(214.451 648.934)" class="st11">
	<circle id="Ellipse_52" class="st2" cx="1100.1" cy="374.1" r="4.9"/>
	<circle id="Ellipse_53" class="st2" cx="1431.3" cy="283.9" r="4.9"/>
	<circle id="Ellipse_54" class="st2" cx="1459.9" cy="283.9" r="4.9"/>
	<path id="Path_159" class="st2" d="M1384.9,153.1c0-2.7,2.2-4.9,4.9-4.9s4.9,2.2,4.9,4.9c0,2.7-2.2,4.9-4.9,4.9
		S1384.9,155.8,1384.9,153.1L1384.9,153.1z"/>
	<circle id="Ellipse_55" class="st2" cx="1084.7" cy="374.1" r="4.9"/>
	<path id="Path_160" class="st2" d="M1064.4,374.1c0-2.7,2.2-4.9,4.9-4.9c2.7,0,4.9,2.2,4.9,4.9c0,2.7-2.2,4.9-4.9,4.9
		C1066.6,379,1064.4,376.8,1064.4,374.1L1064.4,374.1z"/>
	<path id="Path_161" class="st2" d="M1049.1,374.1c0-2.7,2.2-4.9,4.9-4.9c2.7,0,4.9,2.2,4.9,4.9c0,2.7-2.2,4.9-4.9,4.9
		C1051.3,379,1049.1,376.8,1049.1,374.1L1049.1,374.1z"/>
	<circle id="Ellipse_56" class="st2" cx="490.2" cy="236.4" r="4.9"/>
	<path id="Path_162" class="st2" d="M469.9,236.4c0-2.7,2.2-4.9,4.9-4.9s4.9,2.2,4.9,4.9s-2.2,4.9-4.9,4.9l0,0
		C472.1,241.3,469.9,239.1,469.9,236.4z"/>
	<circle id="Ellipse_57" class="st2" cx="459.5" cy="236.4" r="4.9"/>
	<path id="Path_163" class="st2" d="M439.2,236.4c0-2.7,2.2-4.9,4.9-4.9s4.9,2.2,4.9,4.9s-2.2,4.9-4.9,4.9l0,0
		C441.4,241.3,439.2,239.1,439.2,236.4z"/>
	<circle id="Ellipse_58" class="st2" cx="184.3" cy="252.2" r="4.9"/>
	<path id="Path_164" class="st2" d="M164.1,252.2c0-2.7,2.2-4.9,4.9-4.9s4.9,2.2,4.9,4.9s-2.2,4.9-4.9,4.9l0,0
		C166.3,257.1,164.1,254.9,164.1,252.2z"/>
	<path id="Path_165" class="st2" d="M148.8,252.2c0-2.7,2.2-4.9,4.9-4.9c2.7,0,4.9,2.2,4.9,4.9s-2.2,4.9-4.9,4.9l0,0
		C151,257.1,148.8,254.9,148.8,252.2z"/>
	<circle id="Ellipse_59" class="st12" cx="13.9" cy="-166" r="4.9"/>
	<circle id="Ellipse_60" class="st12" cx="44.7" cy="-166" r="4.9"/>
	<path id="Path_166" class="st12" d="M-6.3-166c0-2.7,2.2-4.9,4.9-4.9s4.9,2.2,4.9,4.9s-2.2,4.9-4.9,4.9S-6.3-163.3-6.3-166z"/>
	<circle id="Ellipse_61" class="st12" cx="-16.7" cy="-166" r="4.9"/>
	<path id="Path_167" class="st2" d="M93.2,184.4c0-2.7,2.2-4.9,4.9-4.9c2.7,0,4.9,2.2,4.9,4.9s-2.2,4.9-4.9,4.9
		C95.4,189.3,93.2,187.1,93.2,184.4L93.2,184.4z"/>
	<path id="Path_168" class="st2" d="M-148.7-15.4c0-2.7,2.2-4.9,4.9-4.9s4.9,2.2,4.9,4.9s-2.2,4.9-4.9,4.9S-148.7-12.7-148.7-15.4z"
		/>
	<circle id="Ellipse_62" class="st2" cx="-116.8" cy="369.2" r="4.9"/>
	<path id="Path_169" class="st2" d="M-137,369.2c0-2.7,2.2-4.9,4.9-4.9s4.9,2.2,4.9,4.9c0,2.7-2.2,4.9-4.9,4.9l0,0
		C-134.8,374.1-137,371.9-137,369.2z"/>
	<circle id="Ellipse_63" class="st2" cx="-147.4" cy="369.2" r="4.9"/>
	<path id="Path_170" class="st2" d="M-167.6,369.2c0-2.7,2.2-4.9,4.9-4.9c2.7,0,4.9,2.2,4.9,4.9c0,2.7-2.2,4.9-4.9,4.9l0,0
		C-165.4,374.1-167.6,371.9-167.6,369.2z"/>
	<path id="Path_171" class="st2" d="M1324.1-452.1c0-2.7,2.2-4.9,4.9-4.9l0,0c2.7,0,4.9,2.2,4.9,4.9l0,0c0,2.7-2.2,4.9-4.9,4.9l0,0
		C1326.3-447.2,1324.1-449.4,1324.1-452.1L1324.1-452.1z"/>
	<circle id="Ellipse_64" class="st2" cx="1346.9" cy="-452.1" r="4.9"/>
	<circle id="Ellipse_65" class="st2" cx="1364.7" cy="-452.1" r="4.9"/>
	<circle id="Ellipse_66" class="st2" cx="1382.6" cy="-452.1" r="4.9"/>
</g>
<path id="circuit-3" class="st13" d="M1516.2,81.9c-4.5,0-8.1,3.6-8.1,8.1v43.5c0,4.5,3.6,8.1,8.1,8.1h43.5c4.5,0,8.1-3.6,8.1-8.1
	V118h58.9c4.1,0,7.4,3.3,7.4,7.4v68.9c0,6.8,5.5,12.3,12.4,12.4h79.1v50.7c0,10.9,8.8,19.8,19.8,19.8h42v80.9c0,4.1-3.3,7.4-7.4,7.4
	h-83.8V313c0-10.9-8.9-19.8-19.8-19.8h-106.3c-10.9,0-19.8,8.9-19.8,19.8l0,0v106.3c0,10.9,8.8,19.8,19.8,19.8h64v36
	c0,4.1-3.3,7.4-7.4,7.4h-48.2c-6.8,0-12.3,5.5-12.4,12.4v45.3h-33.4c-5.6,0-10.1,4.5-10.1,10.1l0,0v54.4c0,5.6,4.5,10.1,10.1,10.1
	l0,0h54.4c5.6,0,10.1-4.5,10.1-10.1l0,0v-17h53.4c4.1,0,7.4,3.3,7.4,7.4v82c0,6.8,5.5,12.3,12.4,12.4h74.7V721
	c0,7,5.7,12.7,12.7,12.7h46.9v152.4c0,4.1-3.3,7.4-7.4,7.4h-41.8v-56c0-10.9-8.9-19.8-19.8-19.8h-106.3c-10.9,0-19.8,8.8-19.8,19.8
	l0,0v106.3c0,10.9,8.9,19.8,19.8,19.8l0,0h106.3c10.9,0,19.8-8.9,19.8-19.8l0,0l0,0v-45.3h41.8c6.8,0,12.3-5.5,12.4-12.4V733.7h16.2
	c7,0,12.7-5.7,12.7-12.7l0,0v-68c0-7-5.7-12.7-12.7-12.7h-68c-7,0-12.7,5.7-12.7,12.7l0,0v31.5h-74.7c-4.1,0-7.4-3.3-7.4-7.4v-82
	c0-6.8-5.5-12.3-12.4-12.4h-53.4v-32.4c0-5.6-4.5-10.1-10.1-10.1l0,0h-16.1v-45.3c0-4.1,3.3-7.4,7.4-7.4h48.2
	c6.8,0,12.3-5.5,12.4-12.4v-36h37.3c10.9,0,19.8-8.9,19.8-19.8l0,0v-48.9h83.8c6.8,0,12.3-5.5,12.4-12.4v-80.9h59.3
	c10.9,0,19.8-8.8,19.8-19.8l0,0V151.1c0-10.9-8.9-19.8-19.8-19.8l0,0h-106.3c-10.9,0-19.8,8.9-19.8,19.8l0,0v50.7h-79.1
	c-4.1,0-7.4-3.3-7.4-7.4v-68.9c0-6.8-5.5-12.3-12.4-12.4h-58.9V89.9c0-4.5-3.6-8.1-8.1-8.1L1516.2,81.9z"/>
<g id="circuit-2" transform="translate(0 12.224)" class="st14">
	<g id="Group_138" transform="translate(53.31 59.337)">
		<path id="Path_134" class="st15" d="M1533.2,310.1c0-7.9-6.4-14.3-14.3-14.3s-14.3,6.4-14.3,14.3c0,0.2,0,0.5,0,0.7h-475.1
			c-10,0-18.1,8.1-18.1,18.1v3.5h-97.7c-10,0-18.1,8.1-18.1,18.1v73.6h-43.9c-9.3,0-22.3-5.4-28.9-11.9L773,362.6
			c-6.9-6.9-20.4-12.4-30.1-12.4H644l0,0c0-7.9-6.4-14.3-14.3-14.3s-14.3,6.4-14.3,14.3l0,0H416.5c-9.7,0-23.2,5.6-30.1,12.4
			l-56.1,55.9c-6.6,6.6-19.5,11.9-28.9,11.9H192.8c-9,0-16.4-7.3-16.4-16.4v-90.1c0-10-8.1-18.1-18.1-18.1h-21
			c-0.5-7.9-7.3-13.9-15.2-13.3c-7.2,0.5-12.9,6.2-13.3,13.3H-51.8v1.7h160.5c0.5,7.9,7.2,13.9,15.1,13.4c7.2-0.4,13-6.2,13.4-13.4
			h21c9,0,16.4,7.3,16.4,16.4V414c0,10,8.1,18.1,18.1,18.1h108.6c9.7,0,23.2-5.6,30.1-12.4l56.1-55.9c6.6-6.6,19.5-11.9,28.9-11.9
			h198.9c1,7.8,8.1,13.4,16,12.4c6.5-0.8,11.6-5.9,12.4-12.4h99c9.3,0,22.3,5.4,28.9,11.9l49.8,49.6c6.9,6.9,20.4,12.4,30.1,12.4
			h43.9v77c0,1-0.1,2.1-0.3,3.1c-7.8-1.2-15,4.1-16.3,11.8c-0.1,0.5-0.1,0.9-0.2,1.4H495.9c-9,0-16.4-7.3-16.4-16.4v-45.6
			c0-1-0.1-2-0.3-3c7.9-0.4,14-7,13.6-14.9s-7-14-14.9-13.6c-7.4,0.3-13.3,6.3-13.6,13.6c-1-0.2-2-0.3-3-0.3H-51.8v1.7h513.2
			c1,0,2,0.1,3,0.3c0.6,7,6.1,12.5,13.1,13.1c0.2,1,0.3,2,0.3,3v45.6c0,10,8.1,18.1,18.1,18.1h382.8c0.4,7.9,7.2,13.9,15.1,13.5
			c7.9-0.4,13.9-7.2,13.5-15.1c-0.3-6.1-4.5-11.3-10.5-13c0.2-1.1,0.3-2.3,0.3-3.5v-77h44.2c0.5,7.9,7.3,13.9,15.2,13.3
			c7.2-0.5,12.9-6.2,13.3-13.3h25c10,0,18.1-8.1,18.1-18.1V334H1334c9,0,16.4,7.3,16.4,16.4v179c0,10,8.1,18.1,18.1,18.1h192.3
			c0.1,0,0.2,0,0.3,0c0.4,7.9,7.2,13.9,15.1,13.5s13.9-7.2,13.5-15.1c-0.4-6.3-4.8-11.7-11-13.1c0.2-1.1,0.3-2.2,0.3-3.3V403.8
			c0-9,7.4-16.4,16.4-16.4h242.7v-1.7h-242.7c-10,0-18.1,8.1-18.1,18.1v125.6c0,1-0.1,2-0.3,3c-7.8-0.9-14.9,4.7-15.8,12.6
			c0,0.2-0.1,0.5-0.1,0.7c-0.1,0-0.2,0-0.3,0h-192.3c-9,0-16.4-7.3-16.4-16.3v-179c0-10-8.1-18.1-18.1-18.1h-320.9v-3.5
			c0-9,7.4-16.4,16.4-16.4h475.3c1.4,7.8,8.8,13,16.5,11.7c6-1,10.6-5.7,11.7-11.7h305.2v-1.7h-305
			C1533.2,310.6,1533.2,310.4,1533.2,310.1z M122.9,319.2c-6.6,0-12.1-5.1-12.6-11.7c0-0.3,0-0.6,0-0.9s0-0.6,0-0.9
			c0.5-6.9,6.5-12.1,13.4-11.6c6.2,0.4,11.2,5.4,11.6,11.6c0,0.3,0,0.6,0,0.9s0,0.6,0,0.9C135,314.1,129.5,319.2,122.9,319.2z
			 M629.6,362.6c-6.3,0-11.6-4.6-12.5-10.8c-0.1-0.6-0.1-1.1-0.1-1.7l0,0c0-7,5.6-12.6,12.6-12.6c6.9,0,12.6,5.6,12.6,12.6l0,0
			c0,0.6,0,1.2-0.1,1.7C641.2,358,635.9,362.6,629.6,362.6z M477.1,452.4c-5.7-0.7-10.2-5.2-10.9-10.9c-0.1-0.5-0.1-1.1-0.1-1.6
			c0-0.1,0-0.1,0-0.2c0.1-7,5.8-12.5,12.8-12.4s12.5,5.8,12.4,12.8c-0.1,6.8-5.6,12.3-12.4,12.4c-0.1,0-0.1,0-0.2,0
			C478.1,452.5,477.6,452.5,477.1,452.4z M905.6,520c0,6.9-5.7,12.6-12.6,12.5c-6.6,0-12.1-5.2-12.5-11.7c0-0.3,0-0.5,0-0.8
			s0-0.6,0-0.9c0.5-6.6,6-11.6,12.5-11.6c0.6,0,1.2,0,1.7,0.1c0.6,0.1,1.1,0.2,1.7,0.4C901.9,509.5,905.6,514.4,905.6,520L905.6,520
			z M1575.4,534.1c0.4,0,0.8,0,1.2,0.1c6.9,0.7,11.9,6.8,11.3,13.7c-0.7,6.9-6.8,11.9-13.7,11.3c-6.1-0.6-10.9-5.6-11.3-11.7
			c0-0.2,0-0.5,0-0.8s0-0.7,0.1-1C1563.4,539.2,1568.9,534.1,1575.4,534.1L1575.4,534.1z M955.7,437.5c-6.6,0-12.1-5.1-12.5-11.7
			c0-0.3,0-0.6,0-0.9s0-0.6,0-0.9c0.5-6.9,6.5-12.1,13.4-11.7c6.2,0.4,11.2,5.4,11.7,11.7c0,0.3,0,0.6,0,0.9s0,0.6,0,0.9
			C967.7,432.4,962.3,437.5,955.7,437.5z M1011.3,407.7c0,9-7.4,16.4-16.4,16.4h-25c-0.5-7.9-7.3-13.9-15.2-13.3
			c-7.2,0.5-12.9,6.2-13.3,13.3h-44.2v-73.6c0-9,7.4-16.4,16.4-16.4h97.7V407.7z M1531.2,312.5c-1.3,6.8-7.9,11.3-14.7,10
			c-5.7-1.1-9.9-5.9-10.2-11.7c0-0.2,0-0.5,0-0.7c0-7,5.6-12.6,12.6-12.6s12.6,5.6,12.6,12.6c0,0.2,0,0.5,0,0.7
			C1531.4,311.4,1531.3,312,1531.2,312.5z"/>
		<path id="Path_135" class="st16" d="M1714,107.4c-10,0-18.1,8.1-18.1,18.1v45.6c0,9-7.4,16.4-16.4,16.4h-89.8c0-0.3,0-0.6,0-0.9
			c0-7.9-6.4-14.3-14.3-14.3s-14.3,6.4-14.3,14.3l0,0c0,0.3,0,0.6,0,0.9h-136.8c-10,0-18.1,8.1-18.1,18.1v39.2
			c0,9-7.4,16.4-16.4,16.3h-50.7c-0.5-7.9-7.2-13.9-15.1-13.4c-7.2,0.4-13,6.2-13.4,13.4H1281c-9.3,0-22.3-5.3-28.9-11.9
			l-144.9-144.3c-6.9-6.8-20.4-12.4-30.1-12.4h-110c-0.5-7.9-7.2-13.9-15.1-13.4c-7.2,0.4-13,6.2-13.4,13.4H667
			c-10,0-18.1,8.1-18.1,18.1V156c0,9-7.4,16.4-16.4,16.4H598c-0.5-7.9-7.3-13.9-15.2-13.3c-7.2,0.5-12.9,6.2-13.3,13.3H436.6
			c-10,0-18.1,8.1-18.1,18.1v34c0,9-7.4,16.4-16.4,16.4h-70.8c-0.5-7.9-7.2-13.9-15.1-13.4c-7.2,0.4-13,6.2-13.4,13.4H179.2
			c-9,0-16.4-7.3-16.4-16.4v-194c0-10-8.1-18.1-18.1-18.1h-37.2C107,4.5,100.2-1.5,92.4-1.1c-7.2,0.4-13,6.2-13.4,13.4H-51.8V14
			H78.9c0.5,8,7.3,14,15.1,13.5c7.2-0.4,13-6.2,13.4-13.4h37.2c9,0,16.4,7.3,16.4,16.4v194c0,10,8.1,18.1,18.1,18.1h123.4
			c0.5,7.9,7.2,13.9,15.1,13.4c7.2-0.4,13-6.2,13.4-13.4h71c10,0,18.1-8.1,18.1-18.1v-34c0-9,7.4-16.4,16.4-16.4h132.9
			c0.5,7.9,7.3,13.9,15.2,13.3c7.2-0.5,12.9-6.2,13.3-13.3h34.5c10,0,18.1-8.1,18.1-18.1v-45.6c0-9,7.4-16.4,16.4-16.3h271.6
			c0.5,7.9,7.2,13.9,15.1,13.4c7.2-0.4,13-6.2,13.4-13.4h109.9c9.3,0,22.3,5.3,28.9,11.9l144.9,144.3c6.9,6.8,20.4,12.4,30.1,12.4
			h29.6c0.5,7.9,7.2,13.9,15.1,13.4c7.2-0.4,13-6.2,13.4-13.4h50.7c10,0,18.1-8.1,18.1-18.1v-39.2c0-9,7.4-16.4,16.4-16.4h137.1
			c1.5,7.8,8.9,12.9,16.7,11.4c5.8-1.1,10.3-5.6,11.4-11.4h90c10,0,18.1-8.1,18.1-18.1v-45.6c0-9,7.4-16.4,16.4-16.3H1838v-1.7
			L1714,107.4z M93.2,25.8c-6.6,0-12.1-5.1-12.6-11.7c0-0.3,0-0.6,0-0.9s0-0.6,0-0.9C81.1,5.4,87.1,0.2,94,0.6
			c6.2,0.4,11.2,5.4,11.7,11.7c0,0.3,0,0.6,0,0.9s0,0.6,0,0.9C105.3,20.7,99.8,25.8,93.2,25.8z M316.9,254.2
			c-6.6,0-12.1-5.1-12.5-11.7c0-0.3,0-0.6,0-0.9s0-0.6,0-0.9c0.5-6.9,6.5-12.1,13.4-11.7c6.2,0.4,11.2,5.4,11.7,11.7
			c0,0.3,0,0.6,0,0.9s0,0.6,0,0.9C329,249.1,323.5,254.2,316.9,254.2L316.9,254.2z M583.7,185.8c-6.6,0-12.1-5.1-12.5-11.7
			c0-0.3,0-0.6,0-0.9s0-0.6,0-0.9c0.5-6.9,6.5-12.1,13.4-11.6c6.2,0.4,11.2,5.4,11.6,11.6c0,0.3,0,0.6,0,0.9s0,0.6,0,0.9
			C595.8,180.7,590.3,185.8,583.7,185.8L583.7,185.8z M952.9,105.8c-6.6,0-12.1-5.1-12.5-11.7c0-0.3,0-0.6,0-0.9s0-0.6,0-0.9
			c0.5-6.9,6.5-12.1,13.4-11.7C960,81,965,86,965.5,92.3c0,0.3,0,0.6,0,0.9s0,0.6,0,0.9C965,100.7,959.5,105.8,952.9,105.8z
			 M1324.8,274.5c-6.6,0-12.1-5.1-12.6-11.7c0-0.3,0-0.6,0-0.9s0-0.6,0-0.9c0.5-6.9,6.5-12.2,13.4-11.7c6.3,0.4,11.2,5.4,11.7,11.7
			c0,0.3,0,0.6,0,0.9s0,0.6,0,0.9C1336.9,269.4,1331.4,274.5,1324.8,274.5L1324.8,274.5z M1575.4,199.1c-5.9,0-11.1-4.1-12.3-9.9
			c-0.1-0.6-0.2-1.1-0.2-1.7c0-0.3,0-0.6,0-0.9c0.1-7,5.8-12.5,12.7-12.4c6.8,0.1,12.3,5.6,12.4,12.4c0,0.3,0,0.6,0,0.9
			C1587.5,194.1,1582,199.2,1575.4,199.1z"/>
	</g>
</g>
</svg>
