<?xml version="1.0" encoding="utf-8"?>
<!-- Generator: Adobe Illustrator 24.0.1, SVG Export Plug-In . SVG Version: 6.00 Build 0)  -->
<svg version="1.1" id="Layer_1" xmlns="http://www.w3.org/2000/svg" xmlns:xlink="http://www.w3.org/1999/xlink" x="0px" y="0px"
	 viewBox="0 0 785 810" style="enable-background:new 0 0 785 810;" xml:space="preserve">
<style type="text/css">
	.st0{fill:url(#SVGID_1_);}
	.st1{fill:url(#SVGID_2_);}
</style>
<linearGradient id="SVGID_1_" gradientUnits="userSpaceOnUse" x1="176.4433" y1="47.5099" x2="-58.187" y2="423.584">
	<stop  offset="0" style="stop-color:#E91D2D"/>
	<stop  offset="1" style="stop-color:#B50C1A"/>
</linearGradient>
<path class="st0" d="M0,86.6V580l243.3-431.2c13.8-24.4,5.6-55.5-18.2-69.6L102.5,6.8c-23.8-14.1-54.3-5.7-68,18.6L0,86.6z"/>
<linearGradient id="SVGID_2_" gradientUnits="userSpaceOnUse" x1="623.6837" y1="132.1512" x2="250.7947" y2="787.6331">
	<stop  offset="0" style="stop-color:#E91D2D"/>
	<stop  offset="1" style="stop-color:#B50C1A"/>
</linearGradient>
<path class="st1" d="M783,239.7c-1-3.5-2.4-6.9-4.1-10.1c-0.3-0.5-0.6-1.1-0.9-1.6c-0.9-1.6-1.9-3.1-3-4.6c-1.5-2-3.1-3.9-4.9-5.6
	c-2.2-2.2-4.7-4.3-7.3-6.1c-1.1-0.7-2.2-1.4-3.3-2.1l-265-152.7c-24.4-14.1-55.6-5.7-69.7,18.6L0,810h471.1l236.7-409.2l70.4-121.7
	c3.6-6.2,5.7-12.8,6.5-19.4C785.4,252.9,784.9,246.2,783,239.7z"/>
</svg>
