<svg id="RE_MAX_logo" data-name="RE/MAX logo" xmlns="http://www.w3.org/2000/svg" width="27" height="710" viewBox="0 0 27 710">
  <g id="Group_314" data-name="Group 314" transform="translate(0 710) rotate(-90)">
    <g id="Group_74" data-name="Group 74" transform="translate(0 0.72)">
      <path id="Path_80" data-name="Path 80" d="M147.251,313.936v-.14a7.686,7.686,0,0,0-2.2-5.739,9.983,9.983,0,0,0-7.047-2.374h-9.756v24.693h5.532v-8.047h3.171l4.734,8.047h6.336l-5.5-9.151A7.449,7.449,0,0,0,147.251,313.936Zm-5.569.105v.035c0,2.237-1.524,3.573-4.077,3.573h-3.82v-7.18h3.71C140.234,310.468,141.682,311.7,141.682,314.041Zm83.676-8.5-9.286,24.833h5.584l1.871-5.318h8.691l1.908,5.318h5.73l-9.286-24.833Zm5.175,14.835h-5.32l2.677-7.559Zm25.48-2.628,7.4-12.067h-6.156l-4.376,7.827-4.3-7.827h-6.3l7.326,12.136-7.657,12.557H248.1l4.67-8.284,4.634,8.284h6.3Zm-97.372,7.841v-5.256h9.907v-4.785h-9.907v-5.081h11.265v-4.785H153.145v24.693h10.4l2.526-4.785Zm47.415-19.908-5.589,8-5.661-8h-.064l-5.682,10.762v13.93h5.386v-15.29l5.82,7.578.031.051h.233l5.887-7.7v15.36h5.422V305.683Z" transform="translate(-128.252 -305.543)" fill="#e91d2d"/>
      <path id="Path_81" data-name="Path 81" d="M424.323,306.51l-13.2,24.691h6.8l13.2-24.691Z" transform="translate(-370.247 -306.368)" fill="#003da5"/>
    </g>
    <g id="Group_75" data-name="Group 75" transform="translate(136.284 0)">
      <path id="Path_82" data-name="Path 82" d="M1071.124,300.637a1.867,1.867,0,1,1-.008,0Zm-.008.287a1.508,1.508,0,1,0,.008,0Zm-.352,2.624h-.332V301.5a3.681,3.681,0,0,1,.591-.049,1.129,1.129,0,0,1,.652.155.484.484,0,0,1,.192.424.512.512,0,0,1-.41.5v.017c.185.033.309.195.351.5a1.672,1.672,0,0,0,.134.507h-.351a1.508,1.508,0,0,1-.142-.524.389.389,0,0,0-.451-.359h-.234Zm0-1.137h.242c.277,0,.51-.1.51-.351,0-.181-.133-.36-.51-.36a1.8,1.8,0,0,0-.242.016Z" transform="translate(-1069.253 -300.637)" fill="#dc1c2e"/>
    </g>
  </g>
  <line id="Line_2" data-name="Line 2" y2="550" transform="translate(26)" fill="none" stroke="#e4e4e4" stroke-width="2"/>
</svg>
