<?xml version="1.0" encoding="utf-8"?>
<!-- Generator: Adobe Illustrator 24.0.1, SVG Export Plug-In . SVG Version: 6.00 Build 0)  -->
<svg version="1.1" id="Layer_1" xmlns="http://www.w3.org/2000/svg" xmlns:xlink="http://www.w3.org/1999/xlink" x="0px" y="0px"
	 viewBox="0 0 100 100" style="enable-background:new 0 0 100 100;" xml:space="preserve">
<style type="text/css">
	.st0{fill:#FFFFFF;}
	.st1{fill:url(#Path_317_1_);}
	.st2{fill:url(#Path_318_1_);}
	.st3{fill:url(#Path_319_1_);}
	.st4{fill:url(#Path_320_1_);}
	.st5{fill:#DC1C2E;}
	.st6{fill:#C51828;}
	.st7{fill:#A51220;}
	.st8{fill:#404041;}
	.st9{fill:#626366;}
	.st10{fill:#003DA5;}
	.st11{fill:#00378C;}
	.st12{fill:#002D6F;}
</style>
<g transform="matrix(1, 0, 0, 1, 1231, 490)">
	<path id="Rectangle_1489-2" class="st0" d="M-1216-490h70c8.3,0,15,6.7,15,15v70c0,8.3-6.7,15-15,15h-70c-8.3,0-15-6.7-15-15v-70
		C-1231-483.3-1224.3-490-1216-490z"/>
</g>
<g id="Group_443" transform="translate(213.159 173.01)">
	<g id="Group_433" transform="translate(0 0)">
		<path id="Path_312" class="st0" d="M-166.4-94.8c-0.2,0-0.4-0.1-0.6-0.2l-2.9-2.9c-1.1-1.1-2.1-2.1-3.2-3.2l-0.4-0.4l-0.4-0.4
			l-0.4-0.4l-0.4-0.4l-0.4-0.4l-0.4-0.4l-0.4-0.4l-0.4-0.4l-0.4-0.4l-0.4-0.4l-0.4-0.4l-0.4-0.4l-0.4-0.4l-0.4-0.4l-0.3-0.4
			c-5.1-5.7-8.3-10-9.4-12.8l-0.1-0.1c0-0.1-0.1-0.1-0.1-0.3l0,0l0-0.1c0,0,0-0.1,0-0.1c0,0,0,0,0,0c-1-2.7-1.7-5.5-1.9-8.4
			c-0.4-3.6-0.1-7.2,0.9-10.7l0,0l0.1-0.2c0.5-1.7,1.2-3.3,2.1-4.9c1.3-2.4,3.1-4.5,5.2-6.2c1-0.9,2.2-1.6,3.4-2c0,0,0.1,0,0.1-0.1
			c2.4-2.1,5.4-3.3,8.6-3.3c0.3,0,0.6,0,0.9,0h0c0,0,0.1,0,0.1,0c1.7-1,3.7-1.5,5.6-1.5c0.1,0,0.2,0,0.3,0h0c0.1,0,0.2,0,0.3,0
			c2-0.1,3.9,0.5,5.6,1.5c0,0,0.1,0,0.1,0h0c0.3,0,0.6,0,0.9,0c3.2,0,6.2,1.1,8.6,3.3c0,0,0.1,0,0.1,0.1c1.3,0.4,2.4,1.1,3.4,2
			c2.1,1.8,3.8,3.9,5.2,6.2c0.9,1.5,1.6,3.2,2.1,4.9l0,0.1l0,0.1c0,0.1,0,0.2,0.1,0.2l0,0.2c0,0.1,0,0.1,0,0.2
			c0,0.1,0.1,0.2,0.1,0.3l0,0.1c0,0.1,0.1,0.2,0.1,0.3c0,0.1,0,0.1,0,0.2l0,0.1c0,0.2,0.1,0.3,0.1,0.5c0,0,0,0.1,0,0.1
			c0,0.2,0.1,0.4,0.1,0.6l0,0c0.2,1.3,0.4,2.7,0.4,4v0c0,0.2,0,0.4,0,0.6c0,4-0.7,8-2.1,11.8c0,0.1,0,0.1-0.1,0.2
			c-0.1,0.2-0.1,0.2-0.1,0.3l0,0.1c0,0.1,0,0.1-0.1,0.1l-0.1,0.2l0,0.1c0,0.1-0.1,0.1-0.1,0.2l-0.1,0.1l-0.1,0.2
			c0,0.1-0.1,0.1-0.1,0.2l0,0.1c-0.2,0.3-0.4,0.7-0.6,1.1l0,0c-2.3,3.5-4.8,6.8-7.6,9.8l0,0l-0.4,0.5l0,0l-0.4,0.4l0,0l-0.4,0.4l0,0
			l-0.4,0.4l0,0l-0.4,0.4l0,0l-0.4,0.4l0,0l-0.4,0.4l0,0l-0.4,0.4l-0.4,0.4l-0.4,0.5l-0.4,0.4c-3.4,3.6-6.4,6.5-7.9,8
			c-0.2,0.2-0.4,0.2-0.6,0.2L-166.4-94.8z"/>
		<path id="Path_313" class="st0" d="M-165-88c-0.3,0-0.5-0.2-0.6-0.4l-0.9-3.4c-0.3,0-0.5-0.3-0.5-0.6v-0.4c0-0.3,0.3-0.6,0.6-0.6
			h6.6c0.3,0,0.6,0.3,0.6,0.6v0.4c0,0.3-0.2,0.5-0.5,0.6l-0.9,3.4c-0.1,0.3-0.3,0.4-0.6,0.4L-165-88z"/>
		<g id="Group_432" transform="translate(32.134 64.808)">
			<path id="Path_314" class="st0" d="M-188.4-153.3c-1.2,0-2.3-1-2.3-2.2c0,0,0,0,0,0c0-1.3,1-2.3,2.3-2.3c1.3,0,2.3,1,2.3,2.3
				C-186.1-154.3-187.1-153.3-188.4-153.3C-188.3-153.3-188.3-153.3-188.4-153.3z"/>
			<path id="Path_315" class="st0" d="M-188.4-157.6c1.1,0,2.1,0.9,2.1,2.1c0,1.2-0.9,2.1-2.1,2.1c-1.1,0-2.1-0.9-2.1-2.1
				C-190.4-156.7-189.5-157.6-188.4-157.6L-188.4-157.6z"/>
		</g>
	</g>
	<g id="Group_442" transform="translate(0.878 0.877)">
		<g id="Group_440">
			<g id="Group_434" transform="translate(0 3.299)">
				<path id="Path_316" class="st0" d="M-188.5-125.2c0.1,0.2,0.1,0.2,0.2,0.4c0.9,2.3,3.4,5.7,6.3,9.2c3.6,4.3,7.8,8.8,11.1,12.1
					c1.2,1.2,2.4,2.4,3.3,3.3l0,0l0.2,0.2h0l3.2,0h0l3,0h0.2c5.2-5,16.1-15.9,20.1-22.5l0,0c0.2-0.4,0.4-0.7,0.6-1l0.1-0.1l0.1-0.2
					l0.1-0.1l0.1-0.1c0-0.1,0.1-0.1,0.1-0.2l0-0.1c0-0.1,0.1-0.2,0.1-0.3l0-0.1l0,0c0-0.1,0-0.1,0.1-0.2c0-0.1,0-0.1,0.1-0.2
					c1.7-4.3,3.3-11.8,1.1-18.9c0,0-5.2-14-25.5-14c-10.4-0.5-20.3,4.9-25.6,13.9v0.4l-0.1-0.1
					C-191.6-136.8-190.2-129.5-188.5-125.2L-188.5-125.2z"/>
				
					<linearGradient id="Path_317_1_" gradientUnits="userSpaceOnUse" x1="-190.9199" y1="-87.1037" x2="-191.9198" y2="-87.1037" gradientTransform="matrix(25.6323 0 0 -57.468 4728.7671 -5134.46)">
					<stop  offset="0" style="stop-color:#FFFFFF"/>
					<stop  offset="0.621" style="stop-color:#FDFDFE"/>
					<stop  offset="0.845" style="stop-color:#F6F8FB"/>
					<stop  offset="1" style="stop-color:#EBEFF8"/>
				</linearGradient>
				<path id="Path_317" class="st1" d="M-188.5-125.2c0.1,0.2,0.1,0.2,0.2,0.4c0.9,2.3,3.5,5.7,6.5,9.2c3.7,4.3,8,8.8,11.4,12.1
					c1.3,1.2,2.4,2.3,3.4,3.3l0.2,0.2h0l1.7,0c-10.1-21.4-5.7-50.6-4.5-57.6c-8.3,1.3-15.7,6.3-20,13.5v0.4l-0.1-0.1
					C-191.7-136.8-190.2-129.5-188.5-125.2L-188.5-125.2z"/>
				
					<linearGradient id="Path_318_1_" gradientUnits="userSpaceOnUse" x1="-211.5179" y1="-87.1039" x2="-212.5178" y2="-87.1039" gradientTransform="matrix(25.6367 0 0 -57.466 4757.0933 -5134.2979)">
					<stop  offset="0" style="stop-color:#FFFFFF"/>
					<stop  offset="0.621" style="stop-color:#FDFDFE"/>
					<stop  offset="0.845" style="stop-color:#F6F8FB"/>
					<stop  offset="1" style="stop-color:#EBEFF8"/>
				</linearGradient>
				<path id="Path_318" class="st2" d="M-158.7-157.6c8.3,1.3,15.7,6.3,20,13.5v0.4l0.1-0.1c2.1,7,0.6,14.3-1.1,18.6l0,0
					c-0.1,0.2-0.1,0.2-0.2,0.4c-0.9,2.3-3.5,5.7-6.5,9.2c-3.7,4.3-8,8.8-11.4,12.1c-1.4,1.3-2.6,2.5-3.6,3.5h0l-1.7,0
					C-153-121.4-157.4-150.6-158.7-157.6z"/>
				
					<linearGradient id="Path_319_1_" gradientUnits="userSpaceOnUse" x1="-189.9935" y1="-87.483" x2="-191.2975" y2="-87.601" gradientTransform="matrix(23.5519 0 0 -53.383 4339.1113 -4801.1445)">
					<stop  offset="0" style="stop-color:#EBEFF8"/>
					<stop  offset="0.155" style="stop-color:#F6F8FB"/>
					<stop  offset="0.379" style="stop-color:#FDFDFE"/>
					<stop  offset="1" style="stop-color:#FFFFFF"/>
				</linearGradient>
				<path id="Path_319" class="st3" d="M-147.6-124.4c-4.4,10.6-11.8,21.7-13.4,24c3.2-3.1,8.3-8,12.7-12.9c0.7-0.8,1.4-1.5,2-2.3
					c2.9-3.4,5.3-6.6,6.4-8.9c0-0.1,0-0.1,0.1-0.2l0.1-0.2c0,0,0,0,0-0.1c0,0,0-0.1,0.1-0.4c1.7-4.3,3.2-11.6,1.1-18.5l-0.1-0.3
					c-2.5-4.1-5.9-7.5-10-9.9C-147.1-148.8-143.6-134.1-147.6-124.4z"/>
				
					<linearGradient id="Path_320_1_" gradientUnits="userSpaceOnUse" x1="-190.3269" y1="-87.5526" x2="-190.9917" y2="-87.6126" gradientTransform="matrix(23.5663 0 0 -53.407 4312.3311 -4803.0859)">
					<stop  offset="0" style="stop-color:#FFFFFF"/>
					<stop  offset="0.621" style="stop-color:#FDFDFE"/>
					<stop  offset="0.845" style="stop-color:#F6F8FB"/>
					<stop  offset="1" style="stop-color:#EBEFF8"/>
				</linearGradient>
				<path id="Path_320" class="st4" d="M-188.5-125.1c0.1,0.2,0.1,0.2,0.2,0.4c0.9,2.3,3.5,5.6,6.5,9.2c1,1.1,2,2.3,3.1,3.4
					c4.2,4.5,8.7,8.9,11.7,11.8c-1.5-2.2-9-13.3-13.4-24c-4-9.8-0.5-24.4,1-29.5c-4.1,2.4-7.6,5.8-10,9.9l-0.1,0.3
					C-191.7-136.7-190.2-129.4-188.5-125.1L-188.5-125.1z"/>
			</g>
			<g id="Group_435" transform="translate(1.091)">
				<path id="Path_321" class="st5" d="M-165.1-158c-0.6,0-3.9,0-5.8,1.6c-3.5-0.4-7,0.8-9.5,3.3c-1,0-5.1,2.4-8.3,8.1
					c-0.9,1.5-1.5,3.2-2,4.9c1.8-2.7,5-4.2,8.2-3.8c0.4-0.3,3.6-3.9,10.2-2.6c0.9-1,4.3-2,7.1-2.1c2.8,0,6.1,1.1,7.1,2.1
					c6.7-1.3,9.9,2.4,10.2,2.6c3.2-0.4,6.4,1.1,8.2,3.8c-0.5-1.7-1.2-3.3-2-4.8c-3.2-5.7-7.3-8.1-8.3-8.1c-2.5-2.5-6-3.7-9.5-3.3
					C-161.3-158-164.5-158-165.1-158"/>
				<path id="Path_322" class="st6" d="M-170.3-156.4c-3.6-0.4-7.1,0.8-9.7,3.3c-1,0-5.2,2.4-8.5,8.1c-0.9,1.5-1.6,3.2-2.1,4.9
					c1.9-2.7,5.2-4.2,8.5-3.8c0.4-0.3,3.7-3.9,10.5-2.6C-171-152.2-170.3-156.4-170.3-156.4z"/>
				<path id="Path_323" class="st7" d="M-182.2-144L-182.2-144c1-5.2,2.1-9.1,2.1-9.1c-1,0-5.2,2.4-8.5,8.1
					c-0.9,1.5-1.6,3.2-2.1,4.9C-188.7-142.9-185.5-144.4-182.2-144z"/>
				<path id="Path_324" class="st6" d="M-159.9-156.4c3.6-0.4,7.1,0.8,9.7,3.3c1,0,5.2,2.4,8.5,8.1c0.9,1.5,1.6,3.2,2.1,4.8
					c-1.9-2.7-5.2-4.2-8.5-3.8c-0.4-0.3-3.7-3.9-10.5-2.6C-159.2-152.2-159.9-156.4-159.9-156.4z"/>
				<path id="Path_325" class="st7" d="M-148.1-144L-148.1-144c-1-5.2-2.1-9.1-2.1-9.1c1,0,5.2,2.4,8.5,8.1c0.9,1.5,1.6,3.2,2.1,4.8
					C-141.5-142.9-144.7-144.4-148.1-144z"/>
			</g>
			<g id="Group_436" transform="translate(23.375 64.141)">
				<path id="Path_326" class="st8" d="M-187.3-157.6h-3l0,0.1l1.1,3.9h1.9L-187.3-157.6z"/>
				<path id="Path_327" class="st9" d="M-187.4-157.6h3l0,0.1l-1.1,3.9h-1.9V-157.6z"/>
				<path id="Path_328" class="st9" d="M-184-157.4h-6.6c0,0,0,0,0,0v-0.4c0,0,0,0,0,0h6.6c0,0,0,0,0,0L-184-157.4
					C-184-157.4-184-157.4-184-157.4z"/>
				<path id="Path_329" class="st8" d="M-184.4-157.3l0-0.1h-5.9l0,0.1H-184.4z"/>
			</g>
			<g id="Group_437" transform="translate(2.186 27.686)">
				<path id="Path_330" class="st10" d="M-148.5-153.2c-0.1,0-3.3-3.5-9.8-2.9c-0.4-0.2-2.8-1.5-7.9-1.8c-2.7,0-5.4,0.6-7.9,1.8
					c-6.5-0.6-9.7,2.9-9.8,2.9c-2.6,0-5,1.1-6.7,3c0.1,0.2,0.1,0.2,0.2,0.4c2.4,6.3,15.3,19.7,21,25.5h6.4
					c5.7-5.7,18.6-19.2,21-25.5c0.1-0.2,0.1-0.2,0.2-0.4C-143.5-152.1-146-153.2-148.5-153.2z"/>
				<path id="Path_331" class="st11" d="M-158.8-156.1c6.7-0.6,10,2.9,10.1,2.9c2.6,0,5.2,1.1,6.9,3c-0.1,0.2-0.1,0.2-0.2,0.4
					c-2.5,6.3-15.7,19.7-21.7,25.5h-1.8C-160.8-134.2-159.2-145.7-158.8-156.1L-158.8-156.1z"/>
				<path id="Path_332" class="st12" d="M-148.7-153.2L-148.7-153.2c2.6,0,5.2,1.1,6.9,3c-0.1,0.2-0.1,0.2-0.2,0.4
					c-2.5,6.3-15.7,19.7-21.7,25.5c0,0,8.8-12.9,13.7-25.2C-149.4-150.7-149-151.9-148.7-153.2z"/>
				<path id="Path_333" class="st11" d="M-173.6-156.1c-6.7-0.6-10,2.9-10.1,2.9c-2.6,0-5.2,1.1-6.9,3c0.1,0.2,0.1,0.2,0.2,0.4
					c2.5,6.3,15.7,19.7,21.7,25.5h1.8C-171.6-134.2-173.3-145.7-173.6-156.1L-173.6-156.1z"/>
				<path id="Path_334" class="st12" d="M-183.7-153.2L-183.7-153.2c-2.6,0-5.2,1.1-6.9,3c0.1,0.2,0.1,0.2,0.2,0.4
					c2.5,6.3,15.7,19.7,21.7,25.5c0,0-8.8-12.9-13.7-25.2C-183-150.7-183.4-151.9-183.7-153.2z"/>
			</g>
			<g id="Group_439" transform="translate(6.934 16.131)">
				<g id="Group_438">
					<path id="Path_335" class="st10" d="M-184.9-153.4C-184.9-153.4-184.9-153.4-184.9-153.4c0-0.7-0.2-1.2-0.7-1.6
						c-0.7-0.3-1.5-0.4-2.1-0.1c-1,0.3-1.9,0.7-2.9,1.1c0.1,2.5,0.3,5,0.4,7.5c0.6-0.3,1-0.4,1.6-0.6l-0.1-2.4
						c0.4-0.1,0.6-0.2,0.9-0.3c0.6,0.8,0.9,1.2,1.5,2c0.7-0.2,1.1-0.3,1.9-0.5c-0.6-0.8-1.2-1.5-1.7-2.3
						C-185.4-151.4-184.9-152.3-184.9-153.4z M-186.6-152.9L-186.6-152.9c0,0.7-0.5,1.3-1.2,1.5c-0.5,0.2-0.7,0.2-1.1,0.4l-0.1-2.2
						c0.4-0.2,0.7-0.2,1.1-0.4C-187-153.8-186.6-153.6-186.6-152.9L-186.6-152.9z"/>
					<path id="Path_336" class="st10" d="M-162-157.3c-1,2.4-2,4.8-3,7.2c0.7,0.1,1,0.1,1.7,0.2c0.2-0.6,0.4-0.9,0.6-1.5
						c1.1,0.2,1.6,0.3,2.6,0.5c0.2,0.7,0.3,1,0.5,1.7c0.7,0.1,1,0.2,1.7,0.4c-0.8-2.7-1.7-5.5-2.6-8.2
						C-161.1-157.1-161.4-157.2-162-157.3z M-160.6-152.5c-0.6-0.1-1-0.2-1.6-0.3c0.3-0.9,0.5-1.3,0.9-2.2
						C-161-154-160.8-153.5-160.6-152.5L-160.6-152.5z"/>
					<path id="Path_337" class="st10" d="M-153-151.2c0.8-1,1.6-1.9,2.4-2.8c-0.7-0.3-1.1-0.4-1.8-0.7c-0.6,0.8-0.8,1.1-1.4,1.9
						c-0.4-0.9-0.8-1.9-1.2-2.8c-0.8-0.2-1.1-0.3-1.9-0.5c0.7,1.4,1.4,2.9,2,4.3c-0.8,1-1.6,2.1-2.4,3.2c0.7,0.2,1.1,0.3,1.8,0.5
						c0.6-0.8,0.9-1.3,1.5-2.1c0.4,1,0.8,2,1.2,3c0.7,0.3,1.1,0.4,1.8,0.7C-151.6-148.1-152.3-149.6-153-151.2z"/>
					<path id="Path_338" class="st10" d="M-181.4-150.7l0-1.6c1-0.2,2-0.4,3-0.5l0-1.5c-1,0.1-2,0.3-3,0.5c0-0.6,0-0.9,0-1.5
						c1.1-0.2,2.3-0.4,3.4-0.6c0-0.6,0-0.9,0-1.5c-1.7,0.3-3.4,0.6-5.1,1c0.1,2.5,0.2,5,0.3,7.5c1-0.2,2.1-0.5,3.1-0.6
						c0.3-0.6,0.4-1,0.7-1.6C-180-151-180.5-150.9-181.4-150.7z"/>
					<path id="Path_339" class="st10" d="M-167.7-157.9c-0.6,0.8-1.2,1.6-1.7,2.4c-0.6-0.8-1.2-1.6-1.7-2.5h0
						c-0.6,1.1-1.2,2.2-1.7,3.3c0,1.4,0,2.8,0,4.3c0.7,0,1,0,1.6,0l0-4.7c0.6,0.8,1.2,1.5,1.8,2.3l0,0h0.1c0.6-0.8,1.2-1.5,1.8-2.3
						c0,1.6,0,3.1,0,4.7c0.7,0,1,0.1,1.6,0.1c0-2.5,0.1-5,0.1-7.5C-166.6-157.8-167-157.8-167.7-157.9z"/>
					<path id="Path_340" class="st5" d="M-176.5-150.1c1.3-2.6,2.6-5.3,3.9-7.9c-0.8,0-1.2,0.1-2.1,0.1c-1.3,2.7-2.6,5.3-3.9,8
						C-177.7-149.9-177.3-150-176.5-150.1z"/>
				</g>
			</g>
		</g>
		<g id="Group_441" transform="translate(31.47 64.151)">
			<path id="Path_341" class="st9" d="M-188.6-157.9c1.1,0,2.1,0.9,2.1,2.1c0,1.2-0.9,2.1-2.1,2.1c-1.1,0-2.1-0.9-2.1-2.1
				C-190.7-156.9-189.7-157.9-188.6-157.9L-188.6-157.9z M-188.6-157.5c-0.9,0-1.7,0.8-1.7,1.7c0,0.9,0.8,1.7,1.7,1.7
				c0.9,0,1.7-0.8,1.7-1.7C-186.9-156.8-187.6-157.5-188.6-157.5L-188.6-157.5z M-189-154.6h-0.4v-2.3c0.2,0,0.4-0.1,0.7-0.1
				c0.3,0,0.5,0,0.7,0.2c0.1,0.1,0.2,0.3,0.2,0.5c0,0.3-0.2,0.5-0.5,0.6v0c0.2,0,0.3,0.2,0.4,0.6c0,0.2,0.1,0.4,0.1,0.6h-0.4
				c-0.1-0.2-0.1-0.4-0.2-0.6c0-0.2-0.2-0.4-0.5-0.4c0,0,0,0,0,0h-0.3V-154.6z M-189-155.9h0.3c0.3,0,0.6-0.1,0.6-0.4
				c0-0.2-0.1-0.4-0.6-0.4c-0.1,0-0.2,0-0.3,0V-155.9z"/>
		</g>
	</g>
</g>
</svg>
