<?xml version="1.0" encoding="UTF-8"?>
<svg width="26px" height="26px" viewBox="0 0 26 26" version="1.1" xmlns="http://www.w3.org/2000/svg" xmlns:xlink="http://www.w3.org/1999/xlink">
    <!-- Generator: Sketch 46.2 (44496) - http://www.bohemiancoding.com/sketch -->
    <title>skip-down</title>
    <desc>Created with Sketch.</desc>
    <defs></defs>
    <g id="Page-1" stroke="none" stroke-width="1" fill="none" fill-rule="evenodd">
        <g id="skip-down" fill-rule="nonzero" fill="#7B7979">
            <g id="Icon_ionic-ios-exit" transform="translate(13.750000, 13.875000) rotate(90.000000) translate(-13.750000, -13.875000) translate(0.750000, 0.875000)">
                <path d="M0.1,3.9 L0.1,12.3 L14.2,12.3 L10.5,8.6 C10.1,8.2 10.1,7.6 10.5,7.2 C10.9,6.8 11.5,6.8 11.9,7.2 C11.9,7.2 11.9,7.2 11.9,7.2 L17.3,12.7 C17.5,12.9 17.6,13.1 17.6,13.4 C17.6,13.5 17.6,13.7 17.5,13.8 C17.4,13.9 17.4,14 17.3,14.1 L17.3,14.1 L11.9,19.6 C11.5,20 10.9,20 10.5,19.6 C10.1,19.2 10.1,18.6 10.5,18.2 L10.5,18.2 L14.2,14.5 L0.1,14.5 L0.1,22.9 C0.1,24.6 1.5,26 3.2,26 L22,26 C23.7,26 25.1,24.6 25.1,22.9 L25.1,3.9 C25.1,2.2 23.7,0.8 22,0.8 L3.2,0.8 C1.5,0.8 0.1,2.2 0.1,3.9 Z" id="Path_1034"></path>
            </g>
        </g>
    </g>
</svg>